<?xml version="1.0" standalone="no"?>
<!DOCTYPE svg PUBLIC "-//W3C//DTD SVG 20010904//EN"
 "http://www.w3.org/TR/2001/REC-SVG-20010904/DTD/svg10.dtd">
<svg version="1.0" xmlns="http://www.w3.org/2000/svg"
 width="1069.000000pt" height="647.000000pt" viewBox="0 0 1069.000000 647.000000"
 preserveAspectRatio="xMidYMid meet">

<g transform="translate(0.000000,647.000000) scale(0.100000,-0.100000)"
fill="#000000" stroke="none">
<path d="M572 6020 c-70 -16 -118 -87 -108 -159 10 -67 11 -74 3 -101 l-6 -25
96 -2 c107 -2 138 8 173 57 79 112 -23 260 -158 230z m92 -35 c67 -32 88 -127
41 -184 -36 -42 -85 -56 -140 -41 -24 7 -48 9 -53 6 -6 -4 -13 23 -17 67 -6
59 -4 81 9 105 30 57 97 77 160 47z"/>
<path d="M536 5925 c-7 -19 13 -62 40 -87 44 -39 104 -40 104 -1 0 12 -7 14
-34 10 -41 -7 -70 19 -71 61 0 30 -29 43 -39 17z"/>
<path d="M9158 5443 c-8 -10 -43 -60 -77 -110 -34 -51 -65 -93 -69 -93 -4 0
-38 48 -76 105 -60 93 -72 105 -97 105 -67 0 -605 -224 -676 -282 -16 -12 -5
-38 16 -38 12 -1 156 -170 169 -201 2 -4 -55 -25 -126 -48 -128 -40 -165 -62
-145 -82 6 -6 75 -45 154 -88 l144 -78 0 -180 c0 -147 3 -184 16 -204 10 -15
47 -37 100 -58 46 -19 173 -79 283 -134 178 -90 200 -99 211 -84 6 9 52 32
101 51 124 47 261 110 347 158 39 23 97 51 127 64 52 21 55 24 62 66 4 23 10
137 14 251 l7 208 31 16 c72 36 216 128 221 141 3 8 3 18 -1 23 -8 13 -77 11
-159 -5 -38 -8 -71 -13 -71 -12 -4 3 127 161 136 164 30 11 -4 38 -122 100
-177 93 -491 256 -499 260 -3 1 -12 -5 -21 -15z m-262 -120 c31 -49 57 -94 58
-100 1 -7 -126 -75 -281 -152 -156 -77 -283 -135 -283 -129 0 6 -32 51 -71
101 -40 50 -72 97 -73 106 -1 10 45 36 139 79 121 56 427 180 447 181 4 1 32
-38 64 -86z m569 -63 c147 -76 269 -141 271 -143 5 -4 -135 -181 -146 -185 -5
-2 -50 21 -102 51 -51 30 -158 88 -238 130 -208 109 -194 87 -124 195 32 50
62 91 65 91 4 1 127 -62 274 -139z m-178 -220 c131 -73 242 -135 246 -139 4
-5 -63 -41 -150 -81 -87 -39 -209 -99 -272 -131 l-114 -58 6 77 c4 42 10 166
13 275 6 156 10 197 20 193 7 -3 120 -64 251 -136z m-323 -100 c-7 -113 -13
-228 -13 -257 l-1 -52 -47 20 c-125 52 -463 234 -463 249 0 3 84 46 188 94
103 48 221 105 262 126 41 21 78 35 81 32 3 -4 0 -99 -7 -212z m801 -53 c-11
-8 -104 -57 -206 -109 -103 -52 -221 -118 -263 -147 -46 -30 -87 -51 -104 -51
-60 0 -131 13 -125 23 3 5 121 66 261 135 243 119 347 158 432 161 23 1 24 0
5 -12z m-1278 -73 c99 -61 256 -141 377 -193 28 -12 45 -25 40 -30 -5 -4 -51
-27 -102 -52 l-94 -43 -31 19 c-127 75 -355 204 -429 241 -50 25 -88 47 -85
50 4 4 196 72 209 73 3 1 55 -29 115 -65z m1107 -141 c-2 -38 -7 -134 -10
-215 l-6 -148 -57 -28 c-31 -15 -103 -53 -161 -84 -92 -50 -281 -132 -349
-153 l-24 -7 7 253 c4 139 9 255 11 257 2 3 49 -1 103 -8 112 -15 168 -8 177
19 8 26 265 180 302 181 8 0 11 -19 7 -67z m-988 -169 c111 -64 103 -64 243 2
52 24 96 43 97 41 6 -6 -9 -518 -15 -515 -3 2 -76 38 -161 81 -85 42 -198 94
-250 115 l-95 38 0 47 c1 26 2 101 3 167 l2 120 40 -20 c22 -11 83 -45 136
-76z"/>
<path d="M4730 5025 l0 -55 44 0 c25 0 47 -4 51 -10 3 -5 -6 -37 -20 -71 -33
-82 -32 -89 9 -89 34 0 35 2 66 83 18 45 33 96 33 112 2 30 1 30 -55 33 -54 3
-58 5 -58 27 0 22 -5 25 -35 25 l-35 0 0 -55z"/>
<path d="M6860 5025 l0 -55 50 0 c59 0 60 -3 25 -88 -14 -34 -25 -66 -25 -72
0 -7 15 -10 36 -8 36 3 37 4 70 88 50 129 46 140 -42 140 -40 0 -44 2 -44 25
0 22 -4 25 -35 25 l-35 0 0 -55z"/>
<path d="M5035 5020 c-4 -6 14 -44 39 -84 44 -70 46 -78 46 -145 l0 -72 33 3
32 3 1 95 c0 82 4 102 27 147 23 44 24 52 11 57 -32 12 -55 5 -72 -24 l-19
-30 -22 30 c-22 30 -63 41 -76 20z"/>
<path d="M5264 5023 c-8 -6 -10 -39 -5 -113 l6 -105 38 -3 38 -3 -3 113 -3
113 -30 3 c-16 1 -35 -1 -41 -5z"/>
<path d="M5397 5023 c-4 -3 -7 -55 -7 -115 l0 -109 38 3 37 3 3 83 c2 71 5 83
18 78 9 -3 18 -6 20 -6 2 0 4 -36 4 -81 l0 -80 38 3 37 3 3 75 c3 90 -10 120
-58 137 -38 13 -123 17 -133 6z"/>
<path d="M5652 5023 c-30 -6 -39 -29 -19 -51 12 -13 13 -28 7 -67 -16 -96 -14
-105 24 -105 30 0 34 4 40 31 3 17 6 48 6 68 0 42 21 78 38 67 18 -11 15 -103
-3 -110 -8 -3 -15 -17 -15 -31 0 -25 2 -26 53 -23 l52 3 0 84 c-1 81 -2 84
-33 112 -27 24 -41 29 -80 28 -26 -1 -57 -4 -70 -6z"/>
<path d="M5978 5024 c-5 -4 -8 -18 -8 -31 0 -18 6 -23 24 -23 48 0 56 -9 56
-61 l0 -49 -39 0 c-41 0 -67 -20 -57 -45 4 -12 25 -15 101 -15 94 0 95 0 95
24 0 14 -4 28 -10 31 -5 3 -10 26 -10 50 0 55 -13 91 -39 105 -27 14 -104 24
-113 14z"/>
<path d="M6167 5023 c-11 -10 -8 -51 3 -58 6 -3 10 -42 10 -86 l0 -79 35 0 35
0 0 109 c0 90 -3 110 -16 115 -21 8 -59 8 -67 -1z"/>
<path d="M6313 5024 c-9 -4 -13 -34 -13 -100 l0 -95 35 -15 c41 -17 147 -19
178 -3 58 30 67 48 67 130 0 83 -6 95 -46 85 -22 -6 -24 -11 -24 -70 0 -83
-13 -98 -84 -94 l-51 3 -5 80 c-4 71 -7 80 -25 82 -11 1 -26 -1 -32 -3z"/>
<path d="M6411 5016 c-7 -9 -11 -40 -9 -78 3 -60 4 -63 30 -66 22 -3 30 2 38
23 16 43 13 122 -6 129 -25 10 -41 7 -53 -8z"/>
<path d="M6648 5024 c-5 -4 -8 -56 -8 -116 l0 -108 35 0 35 0 0 79 c0 84 12
109 37 76 8 -12 13 -46 13 -87 l0 -68 35 0 35 0 0 84 c0 74 -3 88 -23 111 -19
23 -33 28 -87 32 -36 3 -68 2 -72 -3z"/>
<path d="M4392 4506 c11 -8 15 -21 12 -37 l-5 -24 15 25 c21 34 20 37 -11 43
-24 4 -25 3 -11 -7z"/>
<path d="M6303 4505 c15 -11 16 -17 7 -34 -6 -12 -7 -21 -3 -21 5 0 14 13 20
29 10 27 9 29 -16 34 -23 5 -24 4 -8 -8z"/>
<path d="M7010 4509 c0 -5 5 -9 11 -9 7 0 9 -10 7 -25 -6 -31 7 -33 16 -2 9
32 8 34 -14 40 -11 3 -20 1 -20 -4z"/>
<path d="M2774 4496 c-8 -20 -1 -49 12 -53 6 -2 10 11 10 32 -1 36 -12 46 -22
21z"/>
<path d="M2814 4476 c0 -19 4 -32 8 -30 4 3 8 18 8 35 0 16 -4 29 -8 29 -4 0
-8 -15 -8 -34z"/>
<path d="M2878 4485 c2 -15 0 -25 -7 -25 -6 0 -11 -5 -11 -11 0 -8 5 -8 15 1
16 13 21 60 6 60 -4 0 -6 -11 -3 -25z"/>
<path d="M2914 4475 c0 -18 3 -32 8 -29 10 6 11 64 1 64 -5 0 -8 -16 -9 -35z"/>
<path d="M2953 4472 l-1 -37 9 33 c10 33 24 41 32 20 3 -8 6 -6 6 5 1 11 -6
17 -21 17 -20 0 -23 -6 -25 -38z"/>
<path d="M3076 4485 c-8 -30 -7 -42 3 -26 7 11 13 12 23 4 10 -9 13 -5 15 16
1 20 -3 27 -17 27 -10 0 -21 -9 -24 -21z"/>
<path d="M3146 4488 c-8 -31 -8 -53 1 -44 4 3 8 16 10 28 4 27 9 32 23 23 7
-4 9 -18 5 -34 -5 -20 -4 -23 6 -14 7 7 9 22 5 37 -8 33 -41 35 -50 4z"/>
<path d="M3241 4498 c0 -7 4 -22 9 -33 7 -16 8 -14 7 12 -1 18 -5 33 -9 33 -5
0 -8 -6 -7 -12z"/>
<path d="M3295 4500 c3 -5 10 -10 16 -10 5 0 9 5 9 10 0 6 -7 10 -16 10 -8 0
-12 -4 -9 -10z"/>
<path d="M3403 4489 c3 -30 -17 -35 -31 -7 -8 17 -11 19 -11 6 -1 -27 28 -51
45 -37 16 13 19 45 4 54 -6 4 -9 -3 -7 -16z"/>
<path d="M3441 4494 c0 -11 3 -14 6 -6 3 7 2 16 -1 19 -3 4 -6 -2 -5 -13z"/>
<path d="M3473 4478 c1 -24 6 -38 14 -38 14 0 33 31 32 52 0 7 -5 2 -11 -12
l-10 -25 -13 30 -13 30 1 -37z"/>
<path d="M3557 4489 c4 -12 0 -25 -8 -29 -7 -5 -10 -12 -6 -16 3 -4 13 -1 22
6 19 16 20 60 1 60 -9 0 -12 -7 -9 -21z"/>
<path d="M3597 4503 c-12 -11 -7 -40 9 -53 21 -18 49 9 39 39 -6 20 -34 28
-48 14z m38 -23 c0 -7 -6 -15 -12 -17 -8 -3 -13 4 -13 17 0 13 5 20 13 18 6
-3 12 -11 12 -18z"/>
<path d="M3725 4500 c3 -5 11 -10 16 -10 6 0 7 5 4 10 -3 6 -11 10 -16 10 -6
0 -7 -4 -4 -10z"/>
<path d="M3876 4503 c7 -4 14 -19 17 -33 4 -22 5 -21 4 4 -1 17 -9 31 -17 33
-10 3 -11 2 -4 -4z"/>
<path d="M3936 4499 c7 -8 14 -23 17 -34 4 -13 5 -9 4 9 -1 16 -9 32 -17 34
-12 4 -13 2 -4 -9z"/>
<path d="M4010 4500 c13 -8 13 -13 2 -31 -11 -18 -11 -20 0 -17 7 3 14 17 16
31 3 21 -1 27 -15 27 -15 0 -16 -2 -3 -10z"/>
<path d="M4070 4479 c0 -17 4 -28 10 -24 6 3 10 15 10 26 0 10 5 19 10 19 6 0
10 -11 10 -25 0 -14 5 -25 10 -25 6 0 10 6 10 14 0 30 -13 46 -36 46 -20 0
-24 -5 -24 -31z"/>
<path d="M4140 4500 c0 -5 5 -10 11 -10 5 0 7 5 4 10 -3 6 -8 10 -11 10 -2 0
-4 -4 -4 -10z"/>
<path d="M4178 4481 c-3 -17 -1 -31 3 -31 4 0 9 9 11 20 4 30 23 24 21 -7 -2
-18 1 -23 8 -16 18 18 6 58 -17 61 -17 2 -22 -3 -26 -27z"/>
<path d="M4247 4480 c-6 -30 1 -40 13 -20 6 10 12 11 22 3 10 -9 13 -6 14 15
1 22 -4 27 -22 27 -16 0 -24 -7 -27 -25z"/>
<path d="M4353 4479 c8 -21 13 -26 15 -14 5 21 -5 45 -17 45 -5 0 -4 -13 2
-31z"/>
<path d="M4475 4500 c3 -5 12 -7 20 -4 9 4 15 -4 18 -23 4 -27 4 -27 6 5 1 28
-2 32 -25 32 -14 0 -23 -4 -19 -10z"/>
<path d="M4540 4500 c0 -5 5 -10 11 -10 5 0 7 5 4 10 -3 6 -8 10 -11 10 -2 0
-4 -4 -4 -10z"/>
<path d="M4595 4500 c3 -5 1 -19 -5 -30 -6 -11 -7 -20 -2 -20 8 0 32 42 32 55
0 3 -7 5 -16 5 -8 0 -12 -4 -9 -10z"/>
<path d="M4634 4485 c-7 -26 5 -51 13 -27 4 9 9 10 17 2 10 -7 13 -2 13 23 1
17 -1 26 -4 19 -4 -10 -8 -10 -19 -2 -10 9 -15 6 -20 -15z"/>
<path d="M4778 4480 c-3 -19 -1 -29 6 -27 14 4 21 57 8 57 -5 0 -12 -14 -14
-30z"/>
<path d="M4815 4500 c3 -5 8 -10 11 -10 2 0 4 5 4 10 0 6 -5 10 -11 10 -5 0
-7 -4 -4 -10z"/>
<path d="M4850 4486 c0 -34 24 -51 44 -31 12 13 13 21 6 36 -16 28 -50 25 -50
-5z m40 -6 c0 -11 -7 -20 -15 -20 -8 0 -15 9 -15 20 0 11 7 20 15 20 8 0 15
-9 15 -20z"/>
<path d="M4920 4500 c0 -5 5 -10 10 -10 6 0 10 5 10 10 0 6 -4 10 -10 10 -5 0
-10 -4 -10 -10z"/>
<path d="M4961 4488 c1 -19 2 -19 6 -5 3 11 11 16 19 13 8 -3 14 -1 14 4 0 6
-9 10 -20 10 -14 0 -20 -6 -19 -22z"/>
<path d="M5020 4501 c0 -6 5 -13 10 -16 6 -3 10 1 10 9 0 9 -4 16 -10 16 -5 0
-10 -4 -10 -9z"/>
<path d="M5075 4500 c4 -6 11 -8 16 -5 14 9 11 15 -7 15 -8 0 -12 -5 -9 -10z"/>
<path d="M5116 4485 c-8 -31 1 -47 13 -26 6 9 11 10 15 2 12 -19 21 -12 21 18
0 20 -4 26 -11 20 -6 -5 -15 -4 -21 2 -7 7 -13 2 -17 -16z"/>
<path d="M5238 4480 c2 -16 6 -30 8 -30 2 0 4 14 4 30 0 17 -4 30 -8 30 -5 0
-7 -13 -4 -30z"/>
<path d="M5288 4480 c2 -16 8 -30 13 -30 5 0 9 14 9 30 0 18 -5 30 -13 30 -9
0 -12 -10 -9 -30z"/>
<path d="M5332 4480 c0 -19 2 -27 5 -17 2 9 2 25 0 35 -3 9 -5 1 -5 -18z"/>
<path d="M5398 4485 c3 -18 0 -25 -12 -25 -10 0 -16 9 -17 23 -1 17 -2 18 -6
4 -7 -26 16 -50 33 -36 15 13 19 59 5 59 -4 0 -6 -11 -3 -25z"/>
<path d="M5465 4481 c0 -16 3 -27 8 -24 4 2 7 15 7 29 0 13 -3 24 -7 24 -5 0
-8 -13 -8 -29z"/>
<path d="M5500 4482 c0 -31 18 -46 39 -32 21 12 9 55 -16 58 -19 3 -23 -1 -23
-26z m40 -2 c0 -11 -7 -20 -15 -20 -15 0 -21 21 -8 33 12 13 23 7 23 -13z"/>
<path d="M5575 4480 c0 -16 3 -30 8 -30 4 0 7 14 7 30 0 17 -3 30 -7 30 -5 0
-8 -13 -8 -30z"/>
<path d="M5610 4480 c0 -16 5 -30 10 -30 6 0 10 14 10 30 0 17 -4 30 -10 30
-5 0 -10 -13 -10 -30z"/>
<path d="M5675 4480 c0 -37 19 -34 23 3 2 17 -1 27 -10 27 -8 0 -13 -12 -13
-30z"/>
<path d="M5798 4485 c3 -19 0 -25 -12 -25 -10 0 -14 -4 -11 -10 16 -25 50 14
39 44 -10 25 -22 18 -16 -9z"/>
<path d="M5837 4504 c-10 -11 -8 -34 3 -34 6 0 10 7 10 15 0 8 5 15 10 15 6 0
10 -14 10 -32 0 -23 3 -29 11 -21 17 17 7 58 -16 61 -12 2 -24 0 -28 -4z"/>
<path d="M5904 4485 c-7 -26 5 -51 13 -27 4 9 9 10 18 2 10 -8 13 -4 13 15 0
14 -3 23 -6 21 -3 -3 -11 -1 -18 5 -10 8 -15 5 -20 -16z"/>
<path d="M6037 4485 c7 -31 -14 -34 -27 -2 -5 13 -9 16 -9 6 -1 -8 6 -24 14
-35 15 -19 15 -19 30 1 17 22 16 46 -1 52 -7 2 -10 -6 -7 -22z"/>
<path d="M6070 4500 c0 -5 5 -10 11 -10 5 0 7 5 4 10 -3 6 -8 10 -11 10 -2 0
-4 -4 -4 -10z"/>
<path d="M6105 4489 c-9 -29 21 -55 42 -37 21 17 12 52 -14 56 -15 2 -23 -4
-28 -19z m43 -12 c2 -10 -3 -17 -12 -17 -10 0 -16 9 -16 21 0 24 23 21 28 -4z"/>
<path d="M6228 4480 c2 -16 9 -30 14 -30 13 0 6 53 -8 57 -7 2 -9 -8 -6 -27z"/>
<path d="M6260 4480 c0 -16 5 -30 10 -30 6 0 10 14 10 30 0 17 -4 30 -10 30
-5 0 -10 -13 -10 -30z"/>
<path d="M6350 4481 c0 -17 2 -31 4 -31 8 0 13 51 5 56 -5 3 -9 -9 -9 -25z"/>
<path d="M6398 4498 c5 -7 12 -22 15 -33 3 -13 5 -9 6 13 1 23 -3 32 -15 32
-12 0 -14 -3 -6 -12z"/>
<path d="M6470 4481 c0 -17 4 -32 8 -35 5 -3 8 11 8 29 -1 42 -16 47 -16 6z"/>
<path d="M6504 4475 c-1 -44 20 -41 24 3 2 21 -1 32 -10 32 -8 0 -13 -13 -14
-35z"/>
<path d="M6540 4481 c0 -17 5 -31 10 -31 6 0 10 11 10 24 0 14 -4 28 -10 31
-6 4 -10 -7 -10 -24z"/>
<path d="M6570 4499 c0 -6 9 -8 20 -4 16 5 20 2 20 -15 0 -16 -4 -20 -16 -16
-10 4 -14 1 -12 -6 6 -18 29 -16 41 3 15 24 1 49 -28 49 -14 0 -25 -5 -25 -11z"/>
<path d="M6647 4495 c-4 -8 -2 -17 3 -20 6 -4 10 1 10 9 0 19 16 21 26 4 4 -6
-1 -17 -11 -24 -10 -8 -16 -17 -12 -20 11 -12 37 18 37 42 0 19 -5 24 -24 24
-13 0 -26 -7 -29 -15z"/>
<path d="M6752 4479 c-1 -16 2 -29 8 -29 5 0 10 5 10 11 0 8 4 8 13 1 9 -8 12
-4 13 16 1 21 -4 27 -21 28 -16 1 -21 -5 -23 -27z"/>
<path d="M6850 4481 c0 -17 4 -33 10 -36 6 -4 7 6 4 25 -5 24 -3 30 11 30 14
0 16 -6 11 -30 -3 -19 -2 -29 4 -25 6 3 10 19 10 36 0 24 -4 29 -25 29 -21 0
-25 -5 -25 -29z"/>
<path d="M6936 4499 c7 -8 14 -23 17 -34 4 -13 5 -9 4 9 -1 16 -9 32 -17 34
-12 4 -13 2 -4 -9z"/>
<path d="M6978 4480 c2 -16 6 -30 8 -30 2 0 4 14 4 30 0 17 -4 30 -8 30 -5 0
-7 -13 -4 -30z"/>
<path d="M3820 4480 c0 -15 -7 -20 -27 -20 -20 0 -24 -3 -16 -11 18 -18 53 -1
53 27 0 13 -2 24 -5 24 -3 0 -5 -9 -5 -20z"/>
<path d="M5761 4484 c0 -11 3 -14 6 -6 3 7 2 16 -1 19 -3 4 -6 -2 -5 -13z"/>
<path d="M3851 4464 c0 -11 3 -14 6 -6 3 7 2 16 -1 19 -3 4 -6 -2 -5 -13z"/>
<path d="M3982 4455 c0 -16 2 -22 5 -12 2 9 2 23 0 30 -3 6 -5 -1 -5 -18z"/>
<path d="M4316 4471 c-4 -7 -5 -15 -2 -18 9 -9 19 4 14 18 -4 11 -6 11 -12 0z"/>
<path d="M5432 4455 c0 -16 2 -22 5 -12 2 9 2 23 0 30 -3 6 -5 -1 -5 -18z"/>
<path d="M5640 4455 c0 -14 5 -25 10 -25 6 0 10 11 10 25 0 14 -4 25 -10 25
-5 0 -10 -11 -10 -25z"/>
<path d="M3702 4450 c0 -14 2 -19 5 -12 2 6 2 18 0 25 -3 6 -5 1 -5 -13z"/>
<path d="M3725 4460 c-3 -5 -1 -10 4 -10 6 0 11 5 11 10 0 6 -2 10 -4 10 -3 0
-8 -4 -11 -10z"/>
<path d="M4735 4460 c-3 -5 1 -10 9 -10 9 0 16 5 16 10 0 6 -4 10 -9 10 -6 0
-13 -4 -16 -10z"/>
<path d="M4980 4460 c-8 -5 -12 -11 -9 -14 2 -3 11 -1 19 4 8 5 12 11 9 14 -2
3 -11 1 -19 -4z"/>
<path d="M3045 4440 c3 -5 8 -10 11 -10 2 0 4 5 4 10 0 6 -5 10 -11 10 -5 0
-7 -4 -4 -10z"/>
<path d="M5300 4350 c0 -4 6 -10 14 -13 9 -4 13 -15 10 -29 -5 -23 -5 -22 10
2 21 34 20 37 -9 42 -14 3 -25 2 -25 -2z"/>
<path d="M3940 4330 c0 -25 17 -26 23 -2 3 9 5 0 6 -20 1 -51 21 -49 21 2 0
36 -2 40 -25 40 -18 0 -25 -5 -25 -20z"/>
<path d="M4000 4321 c0 -17 5 -33 10 -36 6 -4 10 8 10 29 0 20 -4 36 -10 36
-5 0 -10 -13 -10 -29z"/>
<path d="M4050 4340 c0 -5 7 -10 15 -10 8 0 15 5 15 10 0 6 -7 10 -15 10 -8 0
-15 -4 -15 -10z"/>
<path d="M4096 4323 c10 -40 14 -41 14 -5 0 18 -5 32 -10 32 -6 0 -8 -11 -4
-27z"/>
<path d="M4131 4318 c0 -30 1 -31 9 -10 13 30 30 28 30 -5 0 -21 3 -24 12 -15
17 17 -6 62 -32 62 -16 0 -20 -6 -19 -32z"/>
<path d="M4291 4323 c1 -17 3 -21 6 -10 7 26 23 21 23 -8 0 -14 5 -25 10 -25
14 0 13 43 -2 58 -21 21 -38 14 -37 -15z"/>
<path d="M4375 4314 c0 -21 5 -34 13 -34 6 0 12 11 12 24 0 13 -6 28 -12 34
-10 8 -13 2 -13 -24z"/>
<path d="M4440 4340 c0 -5 5 -10 11 -10 5 0 7 5 4 10 -3 6 -8 10 -11 10 -2 0
-4 -4 -4 -10z"/>
<path d="M4476 4323 c10 -40 14 -41 14 -5 0 18 -5 32 -10 32 -6 0 -8 -11 -4
-27z"/>
<path d="M4587 4343 c-2 -5 -1 -19 4 -33 7 -23 7 -23 8 8 1 31 -3 40 -12 25z"/>
<path d="M4620 4315 c0 -22 4 -34 10 -30 6 3 10 17 10 30 0 13 -4 27 -10 30
-6 4 -10 -8 -10 -30z"/>
<path d="M4688 4320 c2 -16 8 -27 13 -24 11 7 5 47 -8 51 -5 2 -8 -9 -5 -27z"/>
<path d="M4805 4328 c0 -31 -18 -35 -27 -6 -6 22 -6 22 -7 2 -1 -12 6 -28 15
-35 14 -11 18 -11 29 4 7 10 11 27 8 37 -7 27 -19 25 -18 -2z"/>
<path d="M4847 4344 c-4 -4 -7 -19 -6 -33 0 -26 0 -26 11 -3 15 30 26 28 30
-5 4 -25 5 -26 13 -9 14 31 -26 72 -48 50z"/>
<path d="M5048 4319 c6 -38 -19 -37 -29 2 -6 22 -7 22 -8 3 -1 -12 6 -28 15
-35 14 -11 18 -11 29 4 7 10 11 27 8 37 -8 32 -20 23 -15 -11z"/>
<path d="M5080 4335 c0 -8 5 -15 10 -15 6 0 10 7 10 15 0 8 -4 15 -10 15 -5 0
-10 -7 -10 -15z"/>
<path d="M5113 4334 c-7 -20 8 -48 29 -52 19 -4 31 24 23 49 -8 23 -43 25 -52
3z m45 -21 c-5 -25 -28 -28 -28 -4 0 12 6 21 16 21 9 0 14 -7 12 -17z"/>
<path d="M5237 4318 c8 -44 13 -48 13 -10 0 17 -4 34 -10 37 -6 4 -7 -6 -3
-27z"/>
<path d="M5270 4321 c0 -17 5 -31 10 -31 6 0 10 11 10 24 0 14 -4 28 -10 31
-6 4 -10 -7 -10 -24z"/>
<path d="M5360 4315 c0 -19 5 -35 10 -35 6 0 10 16 10 35 0 19 -4 35 -10 35
-5 0 -10 -16 -10 -35z"/>
<path d="M5410 4320 c0 -16 5 -30 10 -30 6 0 10 14 10 30 0 17 -4 30 -10 30
-5 0 -10 -13 -10 -30z"/>
<path d="M5480 4315 c0 -19 4 -35 8 -35 4 0 8 16 8 35 0 19 -4 35 -8 35 -4 0
-8 -16 -8 -35z"/>
<path d="M5514 4315 c0 -19 4 -35 8 -35 4 0 8 16 8 35 0 19 -4 35 -8 35 -4 0
-8 -16 -8 -35z"/>
<path d="M5550 4321 c0 -17 5 -31 10 -31 6 0 10 11 10 24 0 14 -4 28 -10 31
-6 4 -10 -7 -10 -24z"/>
<path d="M5588 4344 c-3 -3 -3 -17 1 -32 9 -31 44 -38 49 -9 6 30 -31 60 -50
41z m37 -34 c0 -7 -6 -15 -12 -17 -8 -3 -13 4 -13 17 0 13 5 20 13 18 6 -3 12
-11 12 -18z"/>
<path d="M5654 4339 c-3 -6 -2 -15 4 -21 6 -6 11 -2 15 11 5 22 -7 29 -19 10z"/>
<path d="M5693 4337 c9 -23 -2 -47 -22 -48 -10 0 -12 -2 -3 -6 30 -12 58 46
30 63 -8 5 -9 2 -5 -9z"/>
<path d="M5731 4334 c0 -11 3 -14 6 -6 3 7 2 16 -1 19 -3 4 -6 -2 -5 -13z"/>
<path d="M5860 4315 c0 -19 3 -35 8 -35 4 0 7 16 7 35 0 19 -3 35 -7 35 -5 0
-8 -16 -8 -35z"/>
<path d="M5894 4315 c0 -19 4 -35 8 -35 4 0 8 16 8 35 0 19 -4 35 -8 35 -4 0
-8 -16 -8 -35z"/>
<path d="M5946 4339 c7 -8 14 -23 17 -34 4 -13 5 -9 4 9 -1 16 -9 32 -17 34
-12 4 -13 2 -4 -9z"/>
<path d="M5987 4343 c-2 -5 -1 -19 4 -33 7 -23 7 -23 8 8 1 31 -3 40 -12 25z"/>
<path d="M6029 4341 c9 -6 12 -18 7 -37 l-6 -29 15 25 c20 35 18 50 -7 50 -17
0 -19 -3 -9 -9z"/>
<path d="M6157 4313 c8 -52 13 -54 13 -5 0 23 -4 42 -9 42 -6 0 -7 -17 -4 -37z"/>
<path d="M6208 4320 c2 -17 8 -30 13 -30 14 0 11 36 -4 49 -11 8 -13 5 -9 -19z"/>
<path d="M6247 4343 c-2 -5 -1 -19 4 -33 7 -23 7 -23 8 8 1 31 -3 40 -12 25z"/>
<path d="M6280 4314 c0 -21 4 -33 10 -29 6 3 10 19 10 36 0 16 -4 29 -10 29
-5 0 -10 -16 -10 -36z"/>
<path d="M6320 4337 c0 -9 -3 -22 -6 -31 -3 -9 -1 -16 5 -16 6 0 11 9 11 20 0
12 7 20 16 20 12 0 15 -6 10 -25 -4 -15 -2 -25 4 -25 7 0 10 14 8 33 -2 24 -8
33 -25 35 -15 2 -23 -2 -23 -11z"/>
<path d="M6421 4334 c0 -11 3 -14 6 -6 3 7 2 16 -1 19 -3 4 -6 -2 -5 -13z"/>
<path d="M6648 4315 c-2 -22 0 -34 6 -32 14 4 21 67 8 67 -6 0 -12 -16 -14
-35z"/>
<path d="M6806 4326 c4 -17 0 -28 -13 -36 -17 -11 -17 -11 0 -6 10 3 21 6 23
6 2 0 4 14 4 30 0 17 -5 30 -10 30 -6 0 -8 -10 -4 -24z"/>
<path d="M6836 4338 c-10 -22 11 -60 32 -56 20 4 29 45 13 61 -7 7 -10 2 -8
-16 3 -37 -17 -38 -24 -2 -5 23 -7 26 -13 13z"/>
<path d="M6911 4318 c0 -30 1 -31 9 -10 13 30 34 29 28 -3 -3 -14 -1 -25 4
-25 5 0 8 15 6 33 -2 24 -8 33 -25 35 -20 3 -23 -1 -22 -30z"/>
<path d="M6993 4339 c14 -8 15 -14 6 -30 -6 -12 -8 -23 -5 -26 5 -6 26 40 26
58 0 5 -10 9 -22 9 -21 -1 -21 -2 -5 -11z"/>
<path d="M4520 4330 c0 -5 -3 -15 -6 -23 -4 -11 1 -15 20 -13 33 1 38 41 6 43
-11 1 -20 -2 -20 -7z"/>
<path d="M4916 4323 c-9 -23 -7 -43 4 -43 6 0 10 7 10 16 0 13 3 14 14 5 11
-9 15 -7 18 13 4 19 1 24 -18 24 -13 0 -25 -7 -28 -15z"/>
<path d="M5760 4308 c0 -24 3 -28 13 -19 8 6 16 8 19 5 3 -2 7 5 10 18 3 18 0
23 -19 24 -19 2 -23 -3 -23 -28z"/>
<path d="M6455 4322 c-8 -22 -6 -42 5 -42 6 0 10 7 10 16 0 12 3 14 13 6 9 -8
12 -5 13 12 2 25 -32 31 -41 8z"/>
<path d="M6528 4315 c2 -14 6 -25 8 -25 2 0 4 11 4 25 0 14 -4 25 -9 25 -4 0
-6 -11 -3 -25z"/>
<path d="M6718 4305 c2 -19 6 -35 8 -35 2 0 4 16 4 35 0 19 -4 35 -8 35 -4 0
-6 -16 -4 -35z"/>
<path d="M6606 4304 c-4 -10 -13 -14 -26 -11 -11 3 -18 1 -14 -4 9 -15 44 -10
51 6 3 9 3 18 0 21 -2 3 -7 -3 -11 -12z"/>
<path d="M4650 4290 c0 -11 5 -20 10 -20 6 0 10 9 10 20 0 11 -4 20 -10 20 -5
0 -10 -9 -10 -20z"/>
<path d="M1326 2229 c-14 -11 -26 -24 -26 -29 0 -5 11 2 25 15 33 34 93 34
123 2 12 -13 22 -28 22 -35 0 -6 4 -13 10 -17 5 -3 5 6 -1 24 -21 59 -101 81
-153 40z"/>
<path d="M3875 2239 c-11 -16 -1 -19 13 -3 7 8 8 14 3 14 -5 0 -13 -5 -16 -11z"/>
<path d="M4018 2241 c8 -4 13 -12 12 -17 -1 -5 3 -10 9 -12 6 -2 11 3 11 11 0
9 6 18 13 20 6 3 -4 6 -23 6 -23 0 -30 -2 -22 -8z"/>
<path d="M9285 2240 c-4 -6 10 -10 40 -10 28 0 44 -4 40 -10 -3 -5 3 -10 15
-10 15 0 20 5 18 18 -2 13 -15 18 -55 20 -28 2 -54 -2 -58 -8z"/>
<path d="M6641 2227 c-9 -12 -8 -16 3 -20 19 -7 32 11 19 24 -6 6 -14 5 -22
-4z"/>
<path d="M9278 2213 c6 -2 18 -2 25 0 6 3 1 5 -13 5 -14 0 -19 -2 -12 -5z"/>
<path d="M6700 2200 c0 -5 5 -10 10 -10 6 0 10 5 10 10 0 6 -4 10 -10 10 -5 0
-10 -4 -10 -10z"/>
<path d="M9197 2203 c-4 -3 -7 -42 -7 -86 0 -44 3 -78 6 -75 4 5 12 168 8 168
0 0 -4 -3 -7 -7z"/>
<path d="M1363 2194 c-14 -6 -18 -40 -5 -48 5 -3 8 5 8 17 -1 26 31 36 41 11
4 -11 -1 -22 -13 -31 -19 -14 -19 -15 1 -11 15 2 20 11 20 33 0 30 -21 42 -52
29z"/>
<path d="M3863 2155 c0 -22 2 -30 4 -17 2 12 2 30 0 40 -3 9 -5 -1 -4 -23z"/>
<path d="M3925 2170 c-3 -6 -4 -24 0 -40 5 -21 14 -30 36 -35 30 -7 38 -20 17
-28 -7 -3 -3 -6 10 -6 27 -1 29 13 4 31 -12 8 -18 25 -17 48 0 28 -4 36 -22
38 -11 2 -24 -2 -28 -8z m45 -26 c0 -33 -33 -30 -38 4 -3 17 2 22 17 22 16 0
21 -6 21 -26z"/>
<path d="M4202 2115 c-1 -39 -6 -76 -12 -83 -5 -7 -3 -6 6 1 11 11 14 30 11
83 l-3 69 -2 -70z"/>
<path d="M4093 2163 c9 -2 25 -2 35 0 9 3 1 5 -18 5 -19 0 -27 -2 -17 -5z"/>
<path d="M1290 2155 c0 -5 5 -17 10 -25 5 -8 10 -10 10 -5 0 6 -5 17 -10 25
-5 8 -10 11 -10 5z"/>
<path d="M1471 2138 c-1 -9 -20 -40 -43 -69 l-41 -52 -21 24 c-12 14 -29 36
-39 49 -17 24 -17 24 0 -8 22 -41 58 -76 71 -68 20 12 84 115 79 128 -4 9 -6
8 -6 -4z"/>
<path d="M4050 2120 c0 -5 5 -10 10 -10 6 0 10 5 10 10 0 6 -4 10 -10 10 -5 0
-10 -4 -10 -10z"/>
<path d="M3868 2073 c5 -33 20 -53 36 -53 6 0 3 5 -6 11 -11 6 -18 22 -18 39
0 17 -4 30 -9 30 -4 0 -6 -12 -3 -27z"/>
<path d="M3907 2083 c-13 -12 -7 -23 11 -22 10 0 12 3 4 6 -6 2 -10 9 -6 14 6
10 0 12 -9 2z"/>
<path d="M9302 2081 c-11 -7 -11 -9 0 -14 9 -3 15 1 15 9 0 8 -1 14 -1 14 -1
0 -7 -4 -14 -9z"/>
<path d="M9357 2069 c-4 -16 -3 -18 9 -8 7 6 11 15 8 20 -8 13 -11 11 -17 -12z"/>
<path d="M4088 2073 c6 -2 18 -2 25 0 6 3 1 5 -13 5 -14 0 -19 -2 -12 -5z"/>
<path d="M4113 2013 c9 -2 25 -2 35 0 9 3 1 5 -18 5 -19 0 -27 -2 -17 -5z"/>
<path d="M4231 1504 c0 -11 3 -14 6 -6 3 7 2 16 -1 19 -3 4 -6 -2 -5 -13z"/>
<path d="M931 1494 c0 -11 3 -14 6 -6 3 7 2 16 -1 19 -3 4 -6 -2 -5 -13z"/>
<path d="M9671 1374 c0 -11 3 -14 6 -6 3 7 2 16 -1 19 -3 4 -6 -2 -5 -13z"/>
</g>
</svg>
