<?xml version="1.0" encoding="UTF-8"?>
<!DOCTYPE svg PUBLIC "-//W3C//DTD SVG 1.1//EN" "http://www.w3.org/Graphics/SVG/1.1/DTD/svg11.dtd">
<svg xmlns="http://www.w3.org/2000/svg" version="1.1" width="1069px" height="647px" style="shape-rendering:geometricPrecision; text-rendering:geometricPrecision; image-rendering:optimizeQuality; fill-rule:evenodd; clip-rule:evenodd" xmlns:xlink="http://www.w3.org/1999/xlink">
<g><path style="opacity:1" fill="#8dd2d3" d="M -0.5,-0.5 C 355.833,-0.5 712.167,-0.5 1068.5,-0.5C 1068.5,0.166667 1068.5,0.833333 1068.5,1.5C 712.5,1.5 356.5,1.5 0.5,1.5C 0.5,118.833 0.5,236.167 0.5,353.5C 0.166667,353.5 -0.166667,353.5 -0.5,353.5C -0.5,235.5 -0.5,117.5 -0.5,-0.5 Z"/></g>
<g><path style="opacity:1" fill="#0fe0e0" d="M 1068.5,1.5 C 1068.5,118.833 1068.5,236.167 1068.5,353.5C 712.5,353.5 356.5,353.5 0.5,353.5C 0.5,236.167 0.5,118.833 0.5,1.5C 356.5,1.5 712.5,1.5 1068.5,1.5 Z"/></g>
<g><path style="opacity:1" fill="#f8fafa" d="M 54.5,34.5 C 76.5397,33.374 87.0397,43.7074 86,65.5C 79.7026,82.8996 67.5359,89.0663 49.5,84C 33.9802,74.7536 30.1469,61.9202 38,45.5C 42.1288,39.4979 47.6288,35.8312 54.5,34.5 Z"/></g>
<g><path style="opacity:1" fill="#919191" d="M 63.5,44.5 C 60.0977,44.3424 56.7644,44.6758 53.5,45.5C 53.6107,44.8826 53.944,44.3826 54.5,44C 57.6965,43.1955 60.6965,43.3622 63.5,44.5 Z"/></g>
<g><path style="opacity:1" fill="#2f2f2f" d="M 63.5,44.5 C 75.613,49.0796 78.4463,57.0796 72,68.5C 69.9205,70.1233 67.7538,71.6233 65.5,73C 58.7856,72.9453 52.1189,73.112 45.5,73.5C 45.5,72.5 45.5,71.5 45.5,70.5C 46.6651,69.5039 47.3318,68.1705 47.5,66.5C 45.8552,62.6804 45.1885,58.6804 45.5,54.5C 46.3748,52.4319 47.5415,50.4319 49,48.5C 50.129,46.8588 51.629,45.8588 53.5,45.5C 56.7644,44.6758 60.0977,44.3424 63.5,44.5 Z"/></g>
<g><path style="opacity:1" fill="#efefef" d="M 49.5,53.5 C 50.1499,53.1961 50.8165,52.8627 51.5,52.5C 52.3142,54.7662 52.8142,57.0995 53,59.5C 53.3826,60.056 53.8826,60.3893 54.5,60.5C 56.1667,61.8333 57.8333,63.1667 59.5,64.5C 60.4919,66.0265 61.9919,66.6932 64,66.5C 65.6811,66.3917 66.8478,65.7251 67.5,64.5C 66.7128,61.4009 64.8795,60.7342 62,62.5C 60.395,61.8993 59.0616,60.8993 58,59.5C 57.8138,56.9644 57.3138,54.631 56.5,52.5C 55.3915,51.71 54.0581,51.21 52.5,51C 53.7101,49.9609 54.7101,48.7942 55.5,47.5C 61.2069,45.5236 66.2069,46.8569 70.5,51.5C 74.6112,59.8567 72.6112,66.3567 64.5,71C 60.4823,71.852 56.649,71.352 53,69.5C 52.1268,69.7355 51.2935,70.0688 50.5,70.5C 48.6187,64.7564 48.2853,59.0898 49.5,53.5 Z"/></g>
<g><path style="opacity:1" fill="#bbbbbb" d="M 55.5,47.5 C 54.7101,48.7942 53.7101,49.9609 52.5,51C 54.0581,51.21 55.3915,51.71 56.5,52.5C 55.5,52.5 54.5,52.5 53.5,52.5C 53.4013,55.2372 53.7347,57.9039 54.5,60.5C 53.8826,60.3893 53.3826,60.056 53,59.5C 52.8142,57.0995 52.3142,54.7662 51.5,52.5C 50.8165,52.8627 50.1499,53.1961 49.5,53.5C 50.5,50.5 52.5,48.5 55.5,47.5 Z"/></g>
<g><path style="opacity:1" fill="#252525" d="M 56.5,52.5 C 57.3138,54.631 57.8138,56.9644 58,59.5C 59.0616,60.8993 60.395,61.8993 62,62.5C 64.8795,60.7342 66.7128,61.4009 67.5,64.5C 64.8707,65.7143 62.204,65.7143 59.5,64.5C 57.8333,63.1667 56.1667,61.8333 54.5,60.5C 53.7347,57.9039 53.4013,55.2372 53.5,52.5C 54.5,52.5 55.5,52.5 56.5,52.5 Z"/></g>
<g><path style="opacity:1" fill="#a0a0a0" d="M 59.5,64.5 C 62.204,65.7143 64.8707,65.7143 67.5,64.5C 66.8478,65.7251 65.6811,66.3917 64,66.5C 61.9919,66.6932 60.4919,66.0265 59.5,64.5 Z"/></g>
<g><path style="opacity:1" fill="#c7c7c7" d="M 45.5,54.5 C 45.1885,58.6804 45.8552,62.6804 47.5,66.5C 47.3318,68.1705 46.6651,69.5039 45.5,70.5C 44.6476,64.9975 44.6476,59.6641 45.5,54.5 Z"/></g>
<g><path style="opacity:1" fill="#117374" d="M 935.5,110.5 C 937.027,110.427 938.027,111.094 938.5,112.5C 936.973,112.573 935.973,111.906 935.5,110.5 Z"/></g>
<g><path style="opacity:1" fill="#16282a" d="M 935.5,110.5 C 935.973,111.906 936.973,112.573 938.5,112.5C 948.19,118.012 958.19,123.012 968.5,127.5C 968.973,128.906 969.973,129.573 971.5,129.5C 974.342,131.087 977.008,132.92 979.5,135C 976.178,137.482 973.844,140.648 972.5,144.5C 970.413,145.585 969.08,147.251 968.5,149.5C 967.5,149.833 966.833,150.5 966.5,151.5C 964.375,152.368 964.209,153.368 966,154.5C 967.728,154.101 969.228,153.434 970.5,152.5C 976.491,152.034 982.491,151.701 988.5,151.5C 988.5,152.5 988.5,153.5 988.5,154.5C 983.991,156.919 979.658,159.586 975.5,162.5C 973.368,162.554 972.035,163.554 971.5,165.5C 969.181,165.992 967.181,166.992 965.5,168.5C 963.843,177.957 962.843,187.624 962.5,197.5C 962.832,187.478 962.499,177.478 961.5,167.5C 959.833,168.333 958.167,169.167 956.5,170C 957.737,170.232 958.737,170.732 959.5,171.5C 960.625,182.003 960.625,192.669 959.5,203.5C 959.667,206.167 959.833,208.833 960,211.5C 960.21,209.942 960.71,208.609 961.5,207.5C 961.5,210.167 961.5,212.833 961.5,215.5C 961.727,217.933 960.727,219.599 958.5,220.5C 952.318,221.591 946.984,224.258 942.5,228.5C 940.181,228.992 938.181,229.992 936.5,231.5C 934.152,231.592 932.486,232.592 931.5,234.5C 928.298,235.047 925.298,236.047 922.5,237.5C 919.279,237.896 916.612,239.229 914.5,241.5C 913.127,241.343 911.793,241.51 910.5,242C 908.242,242.876 906.242,244.043 904.5,245.5C 900.423,245.017 898.09,246.684 897.5,250.5C 884.285,244.559 871.285,238.059 858.5,231C 852.359,228.009 846.025,225.509 839.5,223.5C 837.613,209.972 836.946,196.305 837.5,182.5C 827.646,178.007 817.979,173.007 808.5,167.5C 807.253,165.958 807.253,164.458 808.5,163C 813.154,161.393 817.82,159.893 822.5,158.5C 826.88,157.707 831.214,156.707 835.5,155.5C 835.031,152.357 833.364,150.023 830.5,148.5C 827.926,143.591 824.592,139.258 820.5,135.5C 819.952,132.916 818.285,131.916 815.5,132.5C 815.33,131.178 815.663,130.011 816.5,129C 835.992,119.129 855.992,110.462 876.5,103C 880.211,102.175 883.878,102.341 887.5,103.5C 891.842,110.173 896.175,116.839 900.5,123.5C 905.364,116.283 910.364,109.117 915.5,102C 916.833,101.333 918.167,101.333 919.5,102C 924.412,105.623 929.745,108.456 935.5,110.5 Z"/></g>
<g><path style="opacity:1" fill="#11abac" d="M 891.5,117.5 C 894.405,119.756 896.072,122.756 896.5,126.5C 895.5,126.5 894.5,126.5 893.5,126.5C 892.833,123.5 892.167,120.5 891.5,117.5 Z"/></g>
<g><path style="opacity:1" fill="#0ed9d9" d="M 951.5,150.5 C 951.027,149.094 950.027,148.427 948.5,148.5C 942.572,144.431 936.238,141.097 929.5,138.5C 927.973,135.932 925.639,134.599 922.5,134.5C 916.03,132.435 910.363,129.102 905.5,124.5C 909.539,117.723 914.039,111.389 919,105.5C 925.843,108.675 932.343,112.508 938.5,117C 942.746,117.764 946.413,119.597 949.5,122.5C 957.045,126.439 964.712,130.106 972.5,133.5C 973.583,134.365 973.749,135.365 973,136.5C 968.141,141.724 963.641,147.224 959.5,153C 956.183,153.977 953.516,153.144 951.5,150.5 Z"/></g>
<g><path style="opacity:1" fill="#109495" d="M 880.5,106.5 C 878.064,107.871 875.397,108.871 872.5,109.5C 874.617,107.345 877.284,106.345 880.5,106.5 Z"/></g>
<g><path style="opacity:1" fill="#0edbdb" d="M 891.5,117.5 C 892.167,120.5 892.833,123.5 893.5,126.5C 875.162,135.085 856.996,144.085 839,153.5C 834.405,145.996 829.072,138.996 823,132.5C 822.517,131.552 822.351,130.552 822.5,129.5C 826.438,129.365 829.772,127.865 832.5,125C 843.462,120.849 854.128,116.182 864.5,111C 867.117,110.178 869.784,109.678 872.5,109.5C 875.397,108.871 878.064,107.871 880.5,106.5C 881.672,105.295 883.005,105.295 884.5,106.5C 887.104,110.054 889.438,113.721 891.5,117.5 Z"/></g>
<g><path style="opacity:1" fill="#117979" d="M 968.5,127.5 C 970.027,127.427 971.027,128.094 971.5,129.5C 969.973,129.573 968.973,128.906 968.5,127.5 Z"/></g>
<g><path style="opacity:1" fill="#0edddd" d="M 903.5,128.5 C 919.843,137.849 936.176,147.182 952.5,156.5C 950.044,158.567 947.378,160.401 944.5,162C 938.495,164.061 932.829,166.561 927.5,169.5C 925.033,169.755 923.033,170.755 921.5,172.5C 919.033,172.755 917.033,173.755 915.5,175.5C 911.062,177.218 906.728,179.218 902.5,181.5C 900.547,175.926 899.88,169.926 900.5,163.5C 900.5,159.833 900.5,156.167 900.5,152.5C 900.846,144.281 901.846,136.281 903.5,128.5 Z"/></g>
<g><path style="opacity:1" fill="#0edcdc" d="M 895.5,160.5 C 895.5,163.5 895.5,166.5 895.5,169.5C 894.515,173.634 894.182,177.968 894.5,182.5C 893.5,182.5 892.5,182.5 891.5,182.5C 877.743,176.288 864.41,169.621 851.5,162.5C 851.027,161.094 850.027,160.427 848.5,160.5C 848.027,159.094 847.027,158.427 845.5,158.5C 844.167,157.167 844.167,155.833 845.5,154.5C 858.041,147.733 871.041,141.733 884.5,136.5C 886.848,136.408 888.514,135.408 889.5,133.5C 891.262,133.643 892.929,133.309 894.5,132.5C 895.498,141.81 895.832,151.143 895.5,160.5 Z"/></g>
<g><path style="opacity:1" fill="#0faaab" d="M 895.5,160.5 C 895.832,151.143 895.498,141.81 894.5,132.5C 892.929,133.309 891.262,133.643 889.5,133.5C 891.684,131.415 894.351,130.415 897.5,130.5C 897.333,140.685 896.667,150.685 895.5,160.5 Z"/></g>
<g><path style="opacity:1" fill="#119797" d="M 922.5,134.5 C 925.639,134.599 927.973,135.932 929.5,138.5C 926.669,137.921 924.336,136.588 922.5,134.5 Z"/></g>
<g><path style="opacity:1" fill="#109798" d="M 889.5,133.5 C 888.514,135.408 886.848,136.408 884.5,136.5C 885.659,134.75 887.326,133.75 889.5,133.5 Z"/></g>
<g><path style="opacity:1" fill="#117879" d="M 903.5,128.5 C 901.846,136.281 900.846,144.281 900.5,152.5C 900.5,144.167 900.5,135.833 900.5,127.5C 901.791,127.263 902.791,127.596 903.5,128.5 Z"/></g>
<g><path style="opacity:1" fill="#0ab0b0" d="M 692.5,138.5 C 690.167,138.5 687.833,138.5 685.5,138.5C 685.5,142.167 685.5,145.833 685.5,149.5C 689.167,149.5 692.833,149.5 696.5,149.5C 696.118,153.332 694.785,156.665 692.5,159.5C 693.578,156.598 694.244,153.598 694.5,150.5C 690.833,150.5 687.167,150.5 683.5,150.5C 683.5,156.167 683.5,161.833 683.5,167.5C 680.615,167.806 677.948,167.473 675.5,166.5C 677.5,166.5 679.5,166.5 681.5,166.5C 681.823,160.31 681.49,154.31 680.5,148.5C 679.599,146.273 677.933,145.273 675.5,145.5C 675.5,145.167 675.5,144.833 675.5,144.5C 678.421,144.146 680.754,145.146 682.5,147.5C 683.487,144.232 683.82,140.898 683.5,137.5C 686.713,137.19 689.713,137.523 692.5,138.5 Z"/></g>
<g><path style="opacity:1" fill="#0cc3c3" d="M 479.5,138.5 C 477.167,138.5 474.833,138.5 472.5,138.5C 472.5,142.167 472.5,145.833 472.5,149.5C 475.833,149.5 479.167,149.5 482.5,149.5C 482.5,150.5 482.5,151.5 482.5,152.5C 481.313,156.263 479.98,159.93 478.5,163.5C 477.596,164.209 477.263,165.209 477.5,166.5C 476.848,165.551 476.514,164.385 476.5,163C 477.998,159.182 479.331,155.349 480.5,151.5C 477.428,151.817 474.428,151.484 471.5,150.5C 470.561,146.235 470.228,141.902 470.5,137.5C 473.713,137.19 476.713,137.523 479.5,138.5 Z"/></g>
<g><path style="opacity:1" fill="#020a0a" d="M 479.5,144.5 C 483.167,144.5 486.833,144.5 490.5,144.5C 489.91,148.603 488.91,152.603 487.5,156.5C 486.691,158.028 486.024,159.694 485.5,161.5C 484.651,163.5 483.151,164.833 481,165.5C 479.624,165.316 478.791,164.649 478.5,163.5C 479.98,159.93 481.313,156.263 482.5,152.5C 484.466,151.745 484.8,150.579 483.5,149C 480.183,148.502 476.85,148.335 473.5,148.5C 473.5,145.5 473.5,142.5 473.5,139.5C 475.167,139.5 476.833,139.5 478.5,139.5C 478.216,141.415 478.549,143.081 479.5,144.5 Z"/></g>
<g><path style="opacity:1" fill="#044949" d="M 692.5,138.5 C 692.5,140.5 692.5,142.5 692.5,144.5C 691.549,143.081 691.216,141.415 691.5,139.5C 689.833,139.5 688.167,139.5 686.5,139.5C 686.5,142.5 686.5,145.5 686.5,148.5C 690.042,148.187 693.375,148.521 696.5,149.5C 692.833,149.5 689.167,149.5 685.5,149.5C 685.5,145.833 685.5,142.167 685.5,138.5C 687.833,138.5 690.167,138.5 692.5,138.5 Z"/></g>
<g><path style="opacity:1" fill="#010707" d="M 692.5,144.5 C 695.625,145.479 698.958,145.813 702.5,145.5C 702.5,147.167 702.5,148.833 702.5,150.5C 701.833,152.833 701.167,155.167 700.5,157.5C 698.755,159.033 697.755,161.033 697.5,163.5C 695.806,165.438 693.806,165.771 691.5,164.5C 692.127,163.583 692.461,162.583 692.5,161.5C 692.5,160.833 692.5,160.167 692.5,159.5C 694.785,156.665 696.118,153.332 696.5,149.5C 693.375,148.521 690.042,148.187 686.5,148.5C 686.5,145.5 686.5,142.5 686.5,139.5C 688.167,139.5 689.833,139.5 691.5,139.5C 691.216,141.415 691.549,143.081 692.5,144.5 Z"/></g>
<g><path style="opacity:1" fill="#10b9ba" d="M 820.5,135.5 C 824.592,139.258 827.926,143.591 830.5,148.5C 826.101,146.867 822.935,143.867 821,139.5C 820.51,138.207 820.343,136.873 820.5,135.5 Z"/></g>
<g><path style="opacity:1" fill="#0a9f9f" d="M 479.5,138.5 C 480.451,139.919 480.784,141.585 480.5,143.5C 484.042,143.187 487.375,143.521 490.5,144.5C 486.833,144.5 483.167,144.5 479.5,144.5C 479.5,142.5 479.5,140.5 479.5,138.5 Z"/></g>
<g><path style="opacity:1" fill="#0bbcbc" d="M 640.5,144.5 C 646.645,143.51 652.978,143.177 659.5,143.5C 659.666,147.846 659.499,152.179 659,156.5C 658.617,157.056 658.117,157.389 657.5,157.5C 657.5,153.167 657.5,148.833 657.5,144.5C 655.5,144.5 653.5,144.5 651.5,144.5C 651.5,148.5 651.5,152.5 651.5,156.5C 650.728,157.694 649.728,158.694 648.5,159.5C 646.824,158.817 646.157,157.483 646.5,155.5C 646.5,151.833 646.5,148.167 646.5,144.5C 644.5,144.5 642.5,144.5 640.5,144.5 Z"/></g>
<g><path style="opacity:1" fill="#0aa8a8" d="M 692.5,138.5 C 693.451,139.919 693.784,141.585 693.5,143.5C 697.5,143.5 701.5,143.5 705.5,143.5C 705.975,146.082 705.308,148.082 703.5,149.5C 703.5,147.833 703.5,146.167 703.5,144.5C 699.833,144.5 696.167,144.5 692.5,144.5C 692.5,142.5 692.5,140.5 692.5,138.5 Z"/></g>
<g><path style="opacity:1" fill="#022c2c" d="M 692.5,144.5 C 696.167,144.5 699.833,144.5 703.5,144.5C 703.5,146.167 703.5,147.833 703.5,149.5C 703.5,150.167 703.167,150.5 702.5,150.5C 702.5,148.833 702.5,147.167 702.5,145.5C 698.958,145.813 695.625,145.479 692.5,144.5 Z"/></g>
<g><path style="opacity:1" fill="#078080" d="M 490.5,144.5 C 491.613,145.946 491.78,147.613 491,149.5C 490.478,152.281 489.311,154.615 487.5,156.5C 488.91,152.603 489.91,148.603 490.5,144.5 Z"/></g>
<g><path style="opacity:1" fill="#061313" d="M 509.5,144.5 C 511.5,151.167 513.5,151.167 515.5,144.5C 517.924,144.192 520.257,144.526 522.5,145.5C 520.628,147.91 519.295,150.577 518.5,153.5C 517.475,154.374 516.808,155.541 516.5,157C 517.43,162.45 517.763,167.95 517.5,173.5C 515.833,173.5 514.167,173.5 512.5,173.5C 511.673,168.349 511.173,163.016 511,157.5C 509.637,155.316 508.137,153.316 506.5,151.5C 505.043,149.372 504.043,147.038 503.5,144.5C 505.5,144.5 507.5,144.5 509.5,144.5 Z"/></g>
<g><path style="opacity:1" fill="#099191" d="M 515.5,144.5 C 521.31,143.51 527.31,143.177 533.5,143.5C 533.825,151.352 533.492,159.018 532.5,166.5C 532.5,159.167 532.5,151.833 532.5,144.5C 530.167,144.5 527.833,144.5 525.5,144.5C 525.5,146.167 525.5,147.833 525.5,149.5C 524.25,149.423 523.417,148.756 523,147.5C 522.114,150.093 520.614,152.093 518.5,153.5C 519.295,150.577 520.628,147.91 522.5,145.5C 520.257,144.526 517.924,144.192 515.5,144.5 Z"/></g>
<g><path style="opacity:1" fill="#020a0a" d="M 532.5,166.5 C 530.5,166.5 528.5,166.5 526.5,166.5C 526.822,160.642 526.489,154.975 525.5,149.5C 525.5,147.833 525.5,146.167 525.5,144.5C 527.833,144.5 530.167,144.5 532.5,144.5C 532.5,151.833 532.5,159.167 532.5,166.5 Z"/></g>
<g><path style="opacity:1" fill="#077575" d="M 552.5,144.5 C 547.968,144.182 543.634,144.515 539.5,145.5C 539.5,152.5 539.5,159.5 539.5,166.5C 538.508,159.018 538.175,151.352 538.5,143.5C 543.363,143.181 548.03,143.514 552.5,144.5 Z"/></g>
<g><path style="opacity:1" fill="#010808" d="M 539.5,145.5 C 544.43,145.197 549.263,145.531 554,146.5C 554.419,147.672 555.085,148.672 556,149.5C 556.499,154.823 556.666,160.156 556.5,165.5C 555.167,165.5 553.833,165.5 552.5,165.5C 552.666,160.821 552.499,156.155 552,151.5C 551.617,150.944 551.117,150.611 550.5,150.5C 549.081,149.549 547.415,149.216 545.5,149.5C 545.5,155.167 545.5,160.833 545.5,166.5C 543.5,166.5 541.5,166.5 539.5,166.5C 539.5,159.5 539.5,152.5 539.5,145.5 Z"/></g>
<g><path style="opacity:1" fill="#030e0e" d="M 565.5,144.5 C 569.167,144.5 572.833,144.5 576.5,144.5C 578.142,145.803 579.809,147.136 581.5,148.5C 581.5,154.167 581.5,159.833 581.5,165.5C 579.167,165.5 576.833,165.5 574.5,165.5C 574.433,164.041 574.766,162.708 575.5,161.5C 576.643,158.024 576.81,154.358 576,150.5C 573.67,148.968 571.67,149.302 570,151.5C 569.501,155.152 569.335,158.818 569.5,162.5C 568.596,163.209 568.263,164.209 568.5,165.5C 566.833,165.5 565.167,165.5 563.5,165.5C 563.5,164.167 563.5,162.833 563.5,161.5C 563.5,158.5 563.5,155.5 563.5,152.5C 565.048,152.179 565.715,151.179 565.5,149.5C 564.5,149.5 563.5,149.5 562.5,149.5C 562.5,148.167 562.5,146.833 562.5,145.5C 563.791,145.737 564.791,145.404 565.5,144.5 Z"/></g>
<g><path style="opacity:1" fill="#099292" d="M 576.5,144.5 C 579.546,144.183 581.213,145.516 581.5,148.5C 579.809,147.136 578.142,145.803 576.5,144.5 Z"/></g>
<g><path style="opacity:1" fill="#030d0d" d="M 606.5,145.5 C 608.062,145.733 609.395,146.4 610.5,147.5C 611.338,147.842 611.672,148.508 611.5,149.5C 610.911,153.971 611.577,157.971 613.5,161.5C 613.5,162.833 613.5,164.167 613.5,165.5C 607.833,165.5 602.167,165.5 596.5,165.5C 596.5,164.5 596.5,163.5 596.5,162.5C 599.713,162.81 602.713,162.477 605.5,161.5C 605.815,157.629 605.482,153.962 604.5,150.5C 604.5,149.833 604.167,149.5 603.5,149.5C 601.735,148.539 599.735,148.205 597.5,148.5C 597.5,147.5 597.5,146.5 597.5,145.5C 600.5,145.5 603.5,145.5 606.5,145.5 Z"/></g>
<g><path style="opacity:1" fill="#000707" d="M 623.5,165.5 C 621.833,165.5 620.167,165.5 618.5,165.5C 618.821,159.974 618.488,154.64 617.5,149.5C 617.167,149.5 616.833,149.5 616.5,149.5C 616.5,147.833 616.5,146.167 616.5,144.5C 618.833,144.5 621.167,144.5 623.5,144.5C 623.5,151.5 623.5,158.5 623.5,165.5 Z"/></g>
<g><path style="opacity:1" fill="#076c6c" d="M 624.5,166.5 C 624.167,166.5 623.833,166.5 623.5,166.5C 623.5,166.167 623.5,165.833 623.5,165.5C 623.5,158.5 623.5,151.5 623.5,144.5C 621.167,144.5 618.833,144.5 616.5,144.5C 616.5,146.167 616.5,147.833 616.5,149.5C 615.539,147.735 615.205,145.735 615.5,143.5C 618.5,143.5 621.5,143.5 624.5,143.5C 624.5,151.167 624.5,158.833 624.5,166.5 Z"/></g>
<g><path style="opacity:1" fill="#041010" d="M 636.5,160.5 C 639.976,161.643 643.642,161.81 647.5,161C 648.056,160.617 648.389,160.117 648.5,159.5C 649.728,158.694 650.728,157.694 651.5,156.5C 652.482,153.038 652.815,149.371 652.5,145.5C 653.833,145.5 655.167,145.5 656.5,145.5C 656.5,149.833 656.5,154.167 656.5,158.5C 656.5,159.167 656.5,159.833 656.5,160.5C 653.635,162.761 650.635,164.761 647.5,166.5C 641.439,167.003 635.773,166.003 630.5,163.5C 630.5,157.167 630.5,150.833 630.5,144.5C 632.167,144.5 633.833,144.5 635.5,144.5C 635.179,150.026 635.512,155.36 636.5,160.5 Z"/></g>
<g><path style="opacity:1" fill="#056464" d="M 636.5,144.5 C 636.5,149.833 636.5,155.167 636.5,160.5C 635.512,155.36 635.179,150.026 635.5,144.5C 633.833,144.5 632.167,144.5 630.5,144.5C 630.5,150.833 630.5,157.167 630.5,163.5C 629.509,157.021 629.176,150.354 629.5,143.5C 632.059,143.198 634.393,143.532 636.5,144.5 Z"/></g>
<g><path style="opacity:1" fill="#042828" d="M 640.5,144.5 C 642.5,144.5 644.5,144.5 646.5,144.5C 646.5,148.167 646.5,151.833 646.5,155.5C 646.167,155.5 645.833,155.5 645.5,155.5C 645.5,152.167 645.5,148.833 645.5,145.5C 644.167,145.5 642.833,145.5 641.5,145.5C 641.5,149.5 641.5,153.5 641.5,157.5C 642.833,157.5 644.167,157.5 645.5,157.5C 644.081,158.451 642.415,158.784 640.5,158.5C 640.5,153.833 640.5,149.167 640.5,144.5 Z"/></g>
<g><path style="opacity:1" fill="#000101" d="M 645.5,155.5 C 645.5,156.167 645.5,156.833 645.5,157.5C 644.167,157.5 642.833,157.5 641.5,157.5C 641.5,153.5 641.5,149.5 641.5,145.5C 642.833,145.5 644.167,145.5 645.5,145.5C 645.5,148.833 645.5,152.167 645.5,155.5 Z"/></g>
<g><path style="opacity:1" fill="#023434" d="M 657.5,157.5 C 657.5,158.167 657.167,158.5 656.5,158.5C 656.5,154.167 656.5,149.833 656.5,145.5C 655.167,145.5 653.833,145.5 652.5,145.5C 652.815,149.371 652.482,153.038 651.5,156.5C 651.5,152.5 651.5,148.5 651.5,144.5C 653.5,144.5 655.5,144.5 657.5,144.5C 657.5,148.833 657.5,153.167 657.5,157.5 Z"/></g>
<g><path style="opacity:1" fill="#0bbebe" d="M 675.5,144.5 C 671.5,144.5 667.5,144.5 663.5,144.5C 663.5,151.833 663.5,159.167 663.5,166.5C 665.5,166.5 667.5,166.5 669.5,166.5C 669.833,166.5 670.167,166.5 670.5,166.5C 667.713,167.477 664.713,167.81 661.5,167.5C 661.5,159.5 661.5,151.5 661.5,143.5C 666.363,143.181 671.03,143.514 675.5,144.5 Z"/></g>
<g><path style="opacity:1" fill="#033a3a" d="M 675.5,144.5 C 675.5,144.833 675.5,145.167 675.5,145.5C 671.833,145.5 668.167,145.5 664.5,145.5C 664.5,152.167 664.5,158.833 664.5,165.5C 666.167,165.5 667.833,165.5 669.5,165.5C 669.5,165.833 669.5,166.167 669.5,166.5C 667.5,166.5 665.5,166.5 663.5,166.5C 663.5,159.167 663.5,151.833 663.5,144.5C 667.5,144.5 671.5,144.5 675.5,144.5 Z"/></g>
<g><path style="opacity:1" fill="#000505" d="M 675.5,145.5 C 677.933,145.273 679.599,146.273 680.5,148.5C 680.5,154.167 680.5,159.833 680.5,165.5C 679.167,165.5 677.833,165.5 676.5,165.5C 676.821,160.305 676.487,155.305 675.5,150.5C 673.735,149.539 671.735,149.205 669.5,149.5C 669.5,154.833 669.5,160.167 669.5,165.5C 667.833,165.5 666.167,165.5 664.5,165.5C 664.5,158.833 664.5,152.167 664.5,145.5C 668.167,145.5 671.833,145.5 675.5,145.5 Z"/></g>
<g><path style="opacity:1" fill="#119394" d="M 972.5,144.5 C 971.92,146.749 970.587,148.415 968.5,149.5C 969.08,147.251 970.413,145.585 972.5,144.5 Z"/></g>
<g><path style="opacity:1" fill="#034242" d="M 479.5,138.5 C 479.5,140.5 479.5,142.5 479.5,144.5C 478.549,143.081 478.216,141.415 478.5,139.5C 476.833,139.5 475.167,139.5 473.5,139.5C 473.5,142.5 473.5,145.5 473.5,148.5C 476.85,148.335 480.183,148.502 483.5,149C 484.8,150.579 484.466,151.745 482.5,152.5C 482.5,151.5 482.5,150.5 482.5,149.5C 479.167,149.5 475.833,149.5 472.5,149.5C 472.5,145.833 472.5,142.167 472.5,138.5C 474.833,138.5 477.167,138.5 479.5,138.5 Z"/></g>
<g><path style="opacity:1" fill="#099999" d="M 509.5,144.5 C 507.5,144.5 505.5,144.5 503.5,144.5C 504.043,147.038 505.043,149.372 506.5,151.5C 503.107,149.927 501.774,147.26 502.5,143.5C 505.059,143.198 507.393,143.532 509.5,144.5 Z"/></g>
<g><path style="opacity:1" fill="#0aabab" d="M 565.5,144.5 C 564.791,145.404 563.791,145.737 562.5,145.5C 562.5,146.833 562.5,148.167 562.5,149.5C 563.5,149.5 564.5,149.5 565.5,149.5C 565.715,151.179 565.048,152.179 563.5,152.5C 563.179,150.952 562.179,150.285 560.5,150.5C 559.425,146.062 561.092,144.062 565.5,144.5 Z"/></g>
<g><path style="opacity:1" fill="#033c3c" d="M 606.5,145.5 C 603.5,145.5 600.5,145.5 597.5,145.5C 597.5,146.5 597.5,147.5 597.5,148.5C 599.735,148.205 601.735,148.539 603.5,149.5C 601.167,149.5 598.833,149.5 596.5,149.5C 596.5,147.833 596.5,146.167 596.5,144.5C 600.042,144.187 603.375,144.521 606.5,145.5 Z"/></g>
<g><path style="opacity:1" fill="#117e7f" d="M 948.5,148.5 C 950.027,148.427 951.027,149.094 951.5,150.5C 949.973,150.573 948.973,149.906 948.5,148.5 Z"/></g>
<g><path style="opacity:1" fill="#0cc6c6" d="M 610.5,147.5 C 609.395,146.4 608.062,145.733 606.5,145.5C 603.375,144.521 600.042,144.187 596.5,144.5C 596.5,146.167 596.5,147.833 596.5,149.5C 598.833,149.5 601.167,149.5 603.5,149.5C 604.167,149.5 604.5,149.833 604.5,150.5C 604.813,154.042 604.479,157.375 603.5,160.5C 603.5,157.5 603.5,154.5 603.5,151.5C 600.813,151.664 598.146,151.497 595.5,151C 594.565,148.619 594.232,146.119 594.5,143.5C 599.544,143.173 604.544,143.506 609.5,144.5C 610.127,145.417 610.461,146.417 610.5,147.5 Z"/></g>
<g><path style="opacity:1" fill="#043e3e" d="M 617.5,149.5 C 618.488,154.64 618.821,159.974 618.5,165.5C 620.167,165.5 621.833,165.5 623.5,165.5C 623.5,165.833 623.5,166.167 623.5,166.5C 621.5,166.5 619.5,166.5 617.5,166.5C 617.5,160.833 617.5,155.167 617.5,149.5 Z"/></g>
<g><path style="opacity:1" fill="#127375" d="M 988.5,154.5 C 988.5,153.5 988.5,152.5 988.5,151.5C 982.491,151.701 976.491,152.034 970.5,152.5C 976.574,150.752 982.907,150.085 989.5,150.5C 989.768,152.099 989.434,153.432 988.5,154.5 Z"/></g>
<g><path style="opacity:1" fill="#089696" d="M 550.5,150.5 C 549.167,150.5 547.833,150.5 546.5,150.5C 546.821,156.026 546.488,161.36 545.5,166.5C 545.5,160.833 545.5,155.167 545.5,149.5C 547.415,149.216 549.081,149.549 550.5,150.5 Z"/></g>
<g><path style="opacity:1" fill="#034242" d="M 539.5,145.5 C 543.634,144.515 547.968,144.182 552.5,144.5C 554.624,145.031 556.124,146.365 557,148.5C 557.499,154.491 557.666,160.491 557.5,166.5C 555.167,166.5 552.833,166.5 550.5,166.5C 550.5,161.167 550.5,155.833 550.5,150.5C 551.117,150.611 551.617,150.944 552,151.5C 552.499,156.155 552.666,160.821 552.5,165.5C 553.833,165.5 555.167,165.5 556.5,165.5C 556.666,160.156 556.499,154.823 556,149.5C 555.085,148.672 554.419,147.672 554,146.5C 549.263,145.531 544.43,145.197 539.5,145.5 Z"/></g>
<g><path style="opacity:1" fill="#078d8d" d="M 675.5,150.5 C 675.5,155.833 675.5,161.167 675.5,166.5C 674.512,161.36 674.179,156.026 674.5,150.5C 673.167,150.5 671.833,150.5 670.5,150.5C 670.5,155.833 670.5,161.167 670.5,166.5C 670.167,166.5 669.833,166.5 669.5,166.5C 669.5,166.167 669.5,165.833 669.5,165.5C 669.5,160.167 669.5,154.833 669.5,149.5C 671.735,149.205 673.735,149.539 675.5,150.5 Z"/></g>
<g><path style="opacity:1" fill="#023636" d="M 680.5,148.5 C 681.49,154.31 681.823,160.31 681.5,166.5C 679.5,166.5 677.5,166.5 675.5,166.5C 675.5,161.167 675.5,155.833 675.5,150.5C 676.487,155.305 676.821,160.305 676.5,165.5C 677.833,165.5 679.167,165.5 680.5,165.5C 680.5,159.833 680.5,154.167 680.5,148.5 Z"/></g>
<g><path style="opacity:1" fill="#077f7f" d="M 575.5,161.5 C 573.744,162.552 573.077,164.219 573.5,166.5C 572.539,164.735 572.205,162.735 572.5,160.5C 573.5,160.5 574.5,160.5 575.5,160.5C 575.665,157.482 575.498,154.482 575,151.5C 573.989,150.663 572.822,150.33 571.5,150.5C 571.044,154.664 570.378,158.664 569.5,162.5C 569.335,158.818 569.501,155.152 570,151.5C 571.67,149.302 573.67,148.968 576,150.5C 576.81,154.358 576.643,158.024 575.5,161.5 Z"/></g>
<g><path style="opacity:1" fill="#033c3c" d="M 581.5,148.5 C 582.49,154.31 582.823,160.31 582.5,166.5C 579.5,166.5 576.5,166.5 573.5,166.5C 573.077,164.219 573.744,162.552 575.5,161.5C 574.766,162.708 574.433,164.041 574.5,165.5C 576.833,165.5 579.167,165.5 581.5,165.5C 581.5,159.833 581.5,154.167 581.5,148.5 Z"/></g>
<g><path style="opacity:1" fill="#126768" d="M 966.5,151.5 C 967.568,152.434 968.901,152.768 970.5,152.5C 969.228,153.434 967.728,154.101 966,154.5C 964.209,153.368 964.375,152.368 966.5,151.5 Z"/></g>
<g><path style="opacity:1" fill="#136d6e" d="M 830.5,148.5 C 833.364,150.023 835.031,152.357 835.5,155.5C 831.214,156.707 826.88,157.707 822.5,158.5C 826.285,156.734 830.285,155.234 834.5,154C 832.536,152.549 831.203,150.716 830.5,148.5 Z"/></g>
<g><path style="opacity:1" fill="#108f8f" d="M 845.5,154.5 C 844.167,155.833 844.167,157.167 845.5,158.5C 841.5,157.167 841.5,155.833 845.5,154.5 Z"/></g>
<g><path style="opacity:1" fill="#0fd1d1" d="M 971.5,155.5 C 974.187,155.336 976.854,155.503 979.5,156C 966.62,162.94 953.62,169.606 940.5,176C 934.556,179.611 928.889,183.611 923.5,188C 917.098,188.818 910.765,188.484 904.5,187C 905.047,186.075 905.713,185.242 906.5,184.5C 927.742,173.369 949.409,163.702 971.5,155.5 Z"/></g>
<g><path style="opacity:1" fill="#0cc6c6" d="M 506.5,151.5 C 508.137,153.316 509.637,155.316 511,157.5C 511.173,163.016 511.673,168.349 512.5,173.5C 513.919,174.451 515.585,174.784 517.5,174.5C 515.052,175.473 512.385,175.806 509.5,175.5C 509.666,170.156 509.499,164.823 509,159.5C 507.39,157.061 506.556,154.394 506.5,151.5 Z"/></g>
<g><path style="opacity:1" fill="#0bb8b8" d="M 636.5,144.5 C 637.166,149.349 637.833,154.349 638.5,159.5C 639.167,154.349 639.834,149.349 640.5,144.5C 640.5,149.167 640.5,153.833 640.5,158.5C 641.952,159.302 643.618,159.802 645.5,160C 642.518,160.498 639.518,160.665 636.5,160.5C 636.5,155.167 636.5,149.833 636.5,144.5 Z"/></g>
<g><path style="opacity:1" fill="#034e4e" d="M 700.5,157.5 C 700.245,159.967 699.245,161.967 697.5,163.5C 697.755,161.033 698.755,159.033 700.5,157.5 Z"/></g>
<g><path style="opacity:1" fill="#117d7d" d="M 845.5,158.5 C 847.027,158.427 848.027,159.094 848.5,160.5C 846.973,160.573 845.973,159.906 845.5,158.5 Z"/></g>
<g><path style="opacity:1" fill="#067979" d="M 518.5,153.5 C 518.825,160.687 518.491,167.687 517.5,174.5C 515.585,174.784 513.919,174.451 512.5,173.5C 514.167,173.5 515.833,173.5 517.5,173.5C 517.763,167.95 517.43,162.45 516.5,157C 516.808,155.541 517.475,154.374 518.5,153.5 Z"/></g>
<g><path style="opacity:1" fill="#088f8f" d="M 604.5,150.5 C 605.482,153.962 605.815,157.629 605.5,161.5C 602.167,161.5 598.833,161.5 595.5,161.5C 597.948,160.527 600.615,160.194 603.5,160.5C 604.479,157.375 604.813,154.042 604.5,150.5 Z"/></g>
<g><path style="opacity:1" fill="#088585" d="M 645.5,155.5 C 645.833,155.5 646.167,155.5 646.5,155.5C 646.157,157.483 646.824,158.817 648.5,159.5C 648.389,160.117 648.056,160.617 647.5,161C 643.642,161.81 639.976,161.643 636.5,160.5C 639.518,160.665 642.518,160.498 645.5,160C 643.618,159.802 641.952,159.302 640.5,158.5C 642.415,158.784 644.081,158.451 645.5,157.5C 645.5,156.833 645.5,156.167 645.5,155.5 Z"/></g>
<g><path style="opacity:1" fill="#109898" d="M 838.5,158.5 C 832.017,161.105 825.35,163.105 818.5,164.5C 823.774,162.457 829.107,160.291 834.5,158C 836.066,157.235 837.399,157.402 838.5,158.5 Z"/></g>
<g><path style="opacity:1" fill="#0ed9d9" d="M 838.5,158.5 C 840.858,160.678 843.525,162.345 846.5,163.5C 846.973,164.906 847.973,165.573 849.5,165.5C 852.598,167.892 855.931,170.058 859.5,172C 870.257,176.212 880.59,181.212 890.5,187C 885.757,190.038 880.757,192.538 875.5,194.5C 872.206,195.519 868.872,195.519 865.5,194.5C 851.43,186.292 837.096,178.292 822.5,170.5C 821.358,168.567 819.692,167.067 817.5,166C 818.056,165.617 818.389,165.117 818.5,164.5C 825.35,163.105 832.017,161.105 838.5,158.5 Z"/></g>
<g><path style="opacity:1" fill="#116e6f" d="M 848.5,160.5 C 850.027,160.427 851.027,161.094 851.5,162.5C 849.973,162.573 848.973,161.906 848.5,160.5 Z"/></g>
<g><path style="opacity:1" fill="#119a9b" d="M 975.5,162.5 C 974.965,164.446 973.632,165.446 971.5,165.5C 972.035,163.554 973.368,162.554 975.5,162.5 Z"/></g>
<g><path style="opacity:1" fill="#126768" d="M 846.5,163.5 C 848.027,163.427 849.027,164.094 849.5,165.5C 847.973,165.573 846.973,164.906 846.5,163.5 Z"/></g>
<g><path style="opacity:1" fill="#054f4f" d="M 485.5,161.5 C 485.714,163.144 485.38,164.644 484.5,166C 482.19,166.497 479.857,166.663 477.5,166.5C 477.263,165.209 477.596,164.209 478.5,163.5C 478.791,164.649 479.624,165.316 481,165.5C 483.151,164.833 484.651,163.5 485.5,161.5 Z"/></g>
<g><path style="opacity:1" fill="#044b4b" d="M 563.5,161.5 C 563.5,162.833 563.5,164.167 563.5,165.5C 565.167,165.5 566.833,165.5 568.5,165.5C 568.263,164.209 568.596,163.209 569.5,162.5C 569.5,163.833 569.5,165.167 569.5,166.5C 567.167,166.5 564.833,166.5 562.5,166.5C 562.216,164.585 562.549,162.919 563.5,161.5 Z"/></g>
<g><path style="opacity:1" fill="#043e3e" d="M 595.5,161.5 C 598.833,161.5 602.167,161.5 605.5,161.5C 602.713,162.477 599.713,162.81 596.5,162.5C 596.5,163.5 596.5,164.5 596.5,165.5C 602.167,165.5 607.833,165.5 613.5,165.5C 613.5,164.167 613.5,162.833 613.5,161.5C 614.451,162.919 614.784,164.585 614.5,166.5C 608.167,166.5 601.833,166.5 595.5,166.5C 595.5,164.833 595.5,163.167 595.5,161.5 Z"/></g>
<g><path style="opacity:1" fill="#0ab3b3" d="M 611.5,149.5 C 612.482,152.962 612.815,156.629 612.5,160.5C 614.124,160.36 615.29,161.027 616,162.5C 616.499,158.179 616.666,153.846 616.5,149.5C 616.833,149.5 617.167,149.5 617.5,149.5C 617.5,155.167 617.5,160.833 617.5,166.5C 619.5,166.5 621.5,166.5 623.5,166.5C 623.833,166.5 624.167,166.5 624.5,166.5C 614.833,167.833 605.167,167.833 595.5,166.5C 601.833,166.5 608.167,166.5 614.5,166.5C 614.784,164.585 614.451,162.919 613.5,161.5C 611.577,157.971 610.911,153.971 611.5,149.5 Z"/></g>
<g><path style="opacity:1" fill="#09a4a4" d="M 656.5,160.5 C 655.069,164.723 652.069,166.723 647.5,166.5C 650.635,164.761 653.635,162.761 656.5,160.5 Z"/></g>
<g><path style="opacity:1" fill="#044a4a" d="M 692.5,161.5 C 692.461,162.583 692.127,163.583 691.5,164.5C 693.806,165.771 695.806,165.438 697.5,163.5C 697.5,164.5 697.5,165.5 697.5,166.5C 695.167,166.5 692.833,166.5 690.5,166.5C 690.12,164.302 690.787,162.635 692.5,161.5 Z"/></g>
<g><path style="opacity:1" fill="#128d8d" d="M 818.5,164.5 C 818.389,165.117 818.056,165.617 817.5,166C 819.692,167.067 821.358,168.567 822.5,170.5C 818.575,169.9 815.908,167.9 814.5,164.5C 815.833,164.5 817.167,164.5 818.5,164.5 Z"/></g>
<g><path style="opacity:1" fill="#141a1c" d="M 962.5,197.5 C 962.813,201.042 962.479,204.375 961.5,207.5C 960.71,208.609 960.21,209.942 960,211.5C 959.833,208.833 959.667,206.167 959.5,203.5C 960.625,192.669 960.625,182.003 959.5,171.5C 958.737,170.732 957.737,170.232 956.5,170C 958.167,169.167 959.833,168.333 961.5,167.5C 962.499,177.478 962.832,187.478 962.5,197.5 Z"/></g>
<g><path style="opacity:1" fill="#127171" d="M 927.5,169.5 C 925.967,171.245 923.967,172.245 921.5,172.5C 923.033,170.755 925.033,169.755 927.5,169.5 Z"/></g>
<g><path style="opacity:1" fill="#14595b" d="M 921.5,172.5 C 919.967,174.245 917.967,175.245 915.5,175.5C 917.033,173.755 919.033,172.755 921.5,172.5 Z"/></g>
<g><path style="opacity:1" fill="#0edede" d="M 955.5,172.5 C 956.5,172.5 957.5,172.5 958.5,172.5C 958.5,178.167 958.5,183.833 958.5,189.5C 958.29,198.532 957.623,207.532 956.5,216.5C 950.332,218.251 944.666,221.084 939.5,225C 927.647,230.998 915.647,236.498 903.5,241.5C 901.856,241.286 900.356,241.62 899,242.5C 898.501,237.177 898.334,231.844 898.5,226.5C 899.495,215.346 899.828,204.012 899.5,192.5C 907.997,193.479 916.33,193.479 924.5,192.5C 927.014,189.022 930.348,186.189 934.5,184C 941.636,180.105 948.636,176.272 955.5,172.5 Z"/></g>
<g><path style="opacity:1" fill="#0f8b8c" d="M 955.5,172.5 C 956.568,171.566 957.901,171.232 959.5,171.5C 959.823,177.69 959.49,183.69 958.5,189.5C 958.5,183.833 958.5,178.167 958.5,172.5C 957.5,172.5 956.5,172.5 955.5,172.5 Z"/></g>
<g><path style="opacity:1" fill="#0f8687" d="M 895.5,169.5 C 895.5,174.167 895.5,178.833 895.5,183.5C 893.901,183.768 892.568,183.434 891.5,182.5C 892.5,182.5 893.5,182.5 894.5,182.5C 894.182,177.968 894.515,173.634 895.5,169.5 Z"/></g>
<g><path style="opacity:1" fill="#11696a" d="M 899.5,172.5 C 899.185,176.371 899.518,180.038 900.5,183.5C 900.44,184.043 900.107,184.376 899.5,184.5C 898.191,180.351 898.191,176.351 899.5,172.5 Z"/></g>
<g><path style="opacity:1" fill="#0fadad" d="M 900.5,163.5 C 899.88,169.926 900.547,175.926 902.5,181.5C 901.833,182.167 901.167,182.833 900.5,183.5C 899.518,180.038 899.185,176.371 899.5,172.5C 899.19,169.287 899.523,166.287 900.5,163.5 Z"/></g>
<g><path style="opacity:1" fill="#0edcdc" d="M 845.5,187.5 C 853.572,192.376 861.905,197.043 870.5,201.5C 877.909,198.962 884.909,195.628 891.5,191.5C 892.5,191.5 893.5,191.5 894.5,191.5C 894.5,195.167 894.5,198.833 894.5,202.5C 894.5,208.5 894.5,214.5 894.5,220.5C 894.153,228.388 893.153,236.054 891.5,243.5C 884.469,239.982 877.469,236.315 870.5,232.5C 867.819,228.997 864.152,227.33 859.5,227.5C 855.706,226.018 852.039,224.351 848.5,222.5C 846.891,221.229 845.058,220.229 843,219.5C 842.333,208.5 842.333,197.5 843,186.5C 843.671,187.252 844.504,187.586 845.5,187.5 Z"/></g>
<g><path style="opacity:1" fill="#107273" d="M 891.5,191.5 C 892.568,190.566 893.901,190.232 895.5,190.5C 895.817,194.702 895.483,198.702 894.5,202.5C 894.5,198.833 894.5,195.167 894.5,191.5C 893.5,191.5 892.5,191.5 891.5,191.5 Z"/></g>
<g><path style="opacity:1" fill="#0cc7c7" d="M 344.5,194.5 C 351.022,194.177 357.355,194.51 363.5,195.5C 358.74,195.201 357.406,197.201 359.5,201.5C 358.5,201.5 357.5,201.5 356.5,201.5C 357.694,199.516 357.694,197.516 356.5,195.5C 355.548,197.045 355.215,198.712 355.5,200.5C 353.821,200.285 352.821,200.952 352.5,202.5C 351.5,202.5 350.5,202.5 349.5,202.5C 351.512,200.433 351.846,198.1 350.5,195.5C 349.719,196.729 349.219,198.062 349,199.5C 348.333,198.167 347.667,196.833 347,195.5C 346.503,197.81 346.337,200.143 346.5,202.5C 345.659,201.074 344.659,199.74 343.5,198.5C 345.842,197.789 346.175,196.456 344.5,194.5 Z"/></g>
<g><path style="opacity:1" fill="#09a7a7" d="M 646.5,194.5 C 651.179,194.334 655.845,194.501 660.5,195C 663.432,198.146 663.098,200.646 659.5,202.5C 655.266,202.182 650.933,202.182 646.5,202.5C 646.5,199.833 646.5,197.167 646.5,194.5 Z"/></g>
<g><path style="opacity:1" fill="#119d9e" d="M 865.5,194.5 C 868.872,195.519 872.206,195.519 875.5,194.5C 872.167,198.5 868.833,198.5 865.5,194.5 Z"/></g>
<g><path style="opacity:1" fill="#0aadad" d="M 277.5,194.5 C 282.511,194.334 287.511,194.501 292.5,195C 293.877,202.342 294.544,202.176 294.5,194.5C 299.815,194.497 301.815,197.164 300.5,202.5C 299.325,202.719 298.325,202.386 297.5,201.5C 298.645,200.109 298.645,198.776 297.5,197.5C 296.756,198.991 296.09,200.491 295.5,202C 289.175,202.5 282.842,202.666 276.5,202.5C 276.279,199.721 276.612,197.054 277.5,194.5 Z"/></g>
<g><path style="opacity:1" fill="#09a4a4" d="M 494.5,194.5 C 501.053,193.932 507.387,194.599 513.5,196.5C 514.167,196.167 514.833,195.833 515.5,195.5C 515.569,197.278 515.903,199.111 516.5,201C 515.004,201.507 513.837,201.007 513,199.5C 512.692,200.308 512.192,200.975 511.5,201.5C 510.702,199.922 510.202,198.256 510,196.5C 508.855,203.136 508.022,203.136 507.5,196.5C 506.5,196.5 505.5,196.5 504.5,196.5C 504.5,197.5 504.5,198.5 504.5,199.5C 501.937,200.2 499.437,201.2 497,202.5C 496.5,202.167 496,201.833 495.5,201.5C 496.325,200.614 497.325,200.281 498.5,200.5C 498.378,196.162 498.045,195.828 497.5,199.5C 496.5,199.5 495.5,199.5 494.5,199.5C 494.5,197.833 494.5,196.167 494.5,194.5 Z"/></g>
<g><path style="opacity:1" fill="#09a2a2" d="M 627.5,193.5 C 632.488,194.065 637.488,194.731 642.5,195.5C 641.94,197.854 641.273,200.187 640.5,202.5C 639.548,200.955 639.215,199.288 639.5,197.5C 638.5,197.5 637.5,197.5 636.5,197.5C 636.058,202.694 635.058,202.694 633.5,197.5C 630.257,202.914 629.257,202.58 630.5,196.5C 629.5,196.5 628.5,196.5 627.5,196.5C 627.5,198.167 627.5,199.833 627.5,201.5C 626.07,201.421 624.736,201.754 623.5,202.5C 622.964,200.031 621.964,197.864 620.5,196C 623.104,195.61 625.438,194.776 627.5,193.5 Z"/></g>
<g><path style="opacity:1" fill="#0f9c9c" d="M 924.5,192.5 C 916.33,193.479 907.997,193.479 899.5,192.5C 899.828,204.012 899.495,215.346 898.5,226.5C 898.5,214.833 898.5,203.167 898.5,191.5C 907.162,191.928 915.829,192.262 924.5,192.5 Z"/></g>
<g><path style="opacity:1" fill="#0aaaaa" d="M 369.5,196.5 C 373.97,195.514 378.637,195.181 383.5,195.5C 383.5,196.5 383.5,197.5 383.5,198.5C 384.5,198.5 385.5,198.5 386.5,198.5C 386.762,199.978 386.429,201.311 385.5,202.5C 382.035,202.474 378.535,202.141 375,201.5C 373.128,202.068 371.295,202.735 369.5,203.5C 368.167,201.833 368.167,200.167 369.5,198.5C 371.714,200.924 372.714,200.257 372.5,196.5C 371.5,196.5 370.5,196.5 369.5,196.5 Z"/></g>
<g><path style="opacity:1" fill="#09a3a3" d="M 696.5,194.5 C 705.645,192.778 707.479,195.445 702,202.5C 701.82,200.512 701.986,198.512 702.5,196.5C 701.5,196.5 700.5,196.5 699.5,196.5C 699.5,198.5 699.5,200.5 699.5,202.5C 698.5,202.5 697.5,202.5 696.5,202.5C 696.5,199.833 696.5,197.167 696.5,194.5 Z"/></g>
<g><path style="opacity:1" fill="#09a1a1" d="M 323.5,194.5 C 326.167,194.5 328.833,194.5 331.5,194.5C 331.813,197.247 331.48,199.914 330.5,202.5C 329.534,200.604 329.201,198.604 329.5,196.5C 328.167,196.5 326.833,196.5 325.5,196.5C 325.662,198.527 325.495,200.527 325,202.5C 323.625,200.063 323.125,197.397 323.5,194.5 Z"/></g>
<g><path style="opacity:1" fill="#088e8e" d="M 356.5,201.5 C 355.432,202.434 354.099,202.768 352.5,202.5C 352.821,200.952 353.821,200.285 355.5,200.5C 355.215,198.712 355.548,197.045 356.5,195.5C 357.694,197.516 357.694,199.516 356.5,201.5 Z"/></g>
<g><path style="opacity:1" fill="#0bb8b8" d="M 385.5,194.5 C 387.39,194.297 388.89,194.963 390,196.5C 391.916,193.967 393.916,193.967 396,196.5C 397.754,194.75 399.921,194.083 402.5,194.5C 403.006,202.697 399.673,205.364 392.5,202.5C 392.093,195.951 391.093,195.951 389.5,202.5C 388.702,200.922 388.202,199.256 388,197.5C 386.933,196.809 385.766,196.309 384.5,196C 385.056,195.617 385.389,195.117 385.5,194.5 Z"/></g>
<g><path style="opacity:1" fill="#078888" d="M 406.5,195.5 C 408.167,195.5 409.833,195.5 411.5,195.5C 411.795,197.735 411.461,199.735 410.5,201.5C 409.978,194.864 409.145,194.864 408,201.5C 407.107,202.711 406.274,202.711 405.5,201.5C 406.348,199.591 406.682,197.591 406.5,195.5 Z"/></g>
<g><path style="opacity:1" fill="#09a6a6" d="M 419.5,202.5 C 420.952,196.479 420.286,196.146 417.5,201.5C 417.167,201.333 416.833,201.167 416.5,201C 417.406,199.301 417.739,197.467 417.5,195.5C 418.833,195.5 420.167,195.5 421.5,195.5C 425.706,195.397 430.373,195.397 435.5,195.5C 436.706,197.516 436.706,199.516 435.5,201.5C 433.598,196.294 432.598,196.627 432.5,202.5C 430.234,202.859 428.401,202.192 427,200.5C 424.894,202.291 422.394,202.958 419.5,202.5 Z"/></g>
<g><path style="opacity:1" fill="#0aaaaa" d="M 578.5,194.5 C 583.412,193.974 588.078,194.641 592.5,196.5C 593.167,196.167 593.833,195.833 594.5,195.5C 594.488,197.412 594.821,199.412 595.5,201.5C 595.167,201.833 594.833,202.167 594.5,202.5C 592.678,198.898 591.678,198.898 591.5,202.5C 586.144,202.323 580.978,201.989 576,201.5C 575.066,204.592 573.9,204.925 572.5,202.5C 573.894,200.354 574.56,198.021 574.5,195.5C 576.099,195.768 577.432,195.434 578.5,194.5 Z"/></g>
<g><path style="opacity:1" fill="#089a9a" d="M 313.5,195.5 C 315.5,195.5 317.5,195.5 319.5,195.5C 319.5,197.833 319.5,200.167 319.5,202.5C 318.325,202.719 317.325,202.386 316.5,201.5C 317.681,199.802 317.681,198.135 316.5,196.5C 314.093,204.574 313.093,204.24 313.5,195.5 Z"/></g>
<g><path style="opacity:1" fill="#089898" d="M 349.5,202.5 C 348.5,202.5 347.5,202.5 346.5,202.5C 346.337,200.143 346.503,197.81 347,195.5C 347.667,196.833 348.333,198.167 349,199.5C 349.219,198.062 349.719,196.729 350.5,195.5C 351.846,198.1 351.512,200.433 349.5,202.5 Z"/></g>
<g><path style="opacity:1" fill="#089393" d="M 437.5,194.5 C 439.167,194.5 440.833,194.5 442.5,194.5C 442.357,197.097 441.523,199.431 440,201.5C 439.405,200.101 439.572,198.768 440.5,197.5C 439.007,196.859 438.007,195.859 437.5,194.5 Z"/></g>
<g><path style="opacity:1" fill="#09a3a3" d="M 455.5,193.5 C 459.08,193.769 462.413,194.769 465.5,196.5C 466.167,196.167 466.833,195.833 467.5,195.5C 467.488,197.412 467.821,199.412 468.5,201.5C 468.167,201.833 467.833,202.167 467.5,202.5C 465.678,198.898 464.678,198.898 464.5,202.5C 463.5,202.5 462.5,202.5 461.5,202.5C 460.996,198.665 459.996,198.665 458.5,202.5C 458.167,202.167 457.833,201.833 457.5,201.5C 458.309,199.929 458.643,198.262 458.5,196.5C 457.5,196.5 456.5,196.5 455.5,196.5C 455.5,197.5 455.5,198.5 455.5,199.5C 453.857,199.48 452.524,200.147 451.5,201.5C 450.833,199.833 450.167,198.167 449.5,196.5C 448.988,198.851 447.988,200.851 446.5,202.5C 446.218,200.013 446.218,197.347 446.5,194.5C 449.713,194.81 452.713,194.477 455.5,193.5 Z"/></g>
<g><path style="opacity:1" fill="#0aadad" d="M 520.5,194.5 C 527.167,195.833 533.833,195.833 540.5,194.5C 540.768,197.119 540.435,199.619 539.5,202C 535.95,201.91 532.283,202.076 528.5,202.5C 528.5,200.5 528.5,198.5 528.5,196.5C 527.5,196.5 526.5,196.5 525.5,196.5C 525.5,198.5 525.5,200.5 525.5,202.5C 524.5,202.5 523.5,202.5 522.5,202.5C 522.307,199.692 521.64,197.025 520.5,194.5 Z"/></g>
<g><path style="opacity:1" fill="#0bc0c0" d="M 406.5,195.5 C 411.659,194.646 416.659,194.646 421.5,195.5C 420.167,195.5 418.833,195.5 417.5,195.5C 417.739,197.467 417.406,199.301 416.5,201C 416.833,201.167 417.167,201.333 417.5,201.5C 420.286,196.146 420.952,196.479 419.5,202.5C 418.167,202.5 416.833,202.5 415.5,202.5C 415.181,198.7 414.181,198.534 412.5,202C 411.563,202.692 410.897,202.525 410.5,201.5C 411.461,199.735 411.795,197.735 411.5,195.5C 409.833,195.5 408.167,195.5 406.5,195.5 Z"/></g>
<g><path style="opacity:1" fill="#088484" d="M 567.5,195.5 C 570.53,199.203 569.53,201.869 564.5,203.5C 563.167,201.833 563.167,200.167 564.5,198.5C 565.167,199.167 565.833,199.833 566.5,200.5C 567.452,198.955 567.785,197.288 567.5,195.5 Z"/></g>
<g><path style="opacity:1" fill="#09a2a2" d="M 599.5,195.5 C 600.999,196.678 601.999,198.345 602.5,200.5C 603.747,198.994 603.747,197.494 602.5,196C 604.473,195.505 606.473,195.338 608.5,195.5C 608.5,196.5 608.5,197.5 608.5,198.5C 607.5,198.5 606.5,198.5 605.5,198.5C 605.592,202.071 603.926,203.238 600.5,202C 599.577,199.959 599.244,197.792 599.5,195.5 Z"/></g>
<g><path style="opacity:1" fill="#09a4a4" d="M 664.5,194.5 C 669.085,193.987 673.418,194.654 677.5,196.5C 678.167,195.833 678.833,195.167 679.5,194.5C 679.653,196.796 679.987,199.129 680.5,201.5C 678.675,202.571 677.508,201.904 677,199.5C 676.517,200.448 676.351,201.448 676.5,202.5C 675.5,202.5 674.5,202.5 673.5,202.5C 673.338,200.176 672.172,198.509 670,197.5C 670.15,201.87 668.316,203.203 664.5,201.5C 665.325,200.614 666.325,200.281 667.5,200.5C 667.669,195.959 667.002,195.626 665.5,199.5C 664.548,197.955 664.215,196.288 664.5,194.5 Z"/></g>
<g><path style="opacity:1" fill="#099f9f" d="M 344.5,194.5 C 346.175,196.456 345.842,197.789 343.5,198.5C 340.331,203.964 337.664,203.797 335.5,198C 335.833,197.167 336.167,196.333 336.5,195.5C 338.093,202.049 339.093,202.049 339.5,195.5C 341.216,195.371 342.883,195.038 344.5,194.5 Z"/></g>
<g><path style="opacity:1" fill="#099a9a" d="M 363.5,195.5 C 364.622,197.288 364.789,199.288 364,201.5C 362.384,202.801 360.884,202.801 359.5,201.5C 357.406,197.201 358.74,195.201 363.5,195.5 Z"/></g>
<g><path style="opacity:1" fill="#09a8a8" d="M 472.5,194.5 C 477.844,194.334 483.177,194.501 488.5,195C 489,195.5 489.5,196 490,196.5C 490.71,195.027 491.876,194.36 493.5,194.5C 493.762,195.978 493.429,197.311 492.5,198.5C 490.898,197.45 490.065,198.117 490,200.5C 489.261,201.574 488.261,202.241 487,202.5C 485.333,201.5 483.667,200.5 482,199.5C 478.947,202.437 475.447,203.103 471.5,201.5C 472.374,199.253 472.708,196.92 472.5,194.5 Z"/></g>
<g><path style="opacity:1" fill="#09a1a1" d="M 549.5,194.5 C 553.717,194.215 555.883,196.215 556,200.5C 556.495,198.527 556.662,196.527 556.5,194.5C 558.5,194.5 560.5,194.5 562.5,194.5C 562.5,196.833 562.5,199.167 562.5,201.5C 558.938,202.438 555.438,202.771 552,202.5C 550.715,202.05 549.548,201.383 548.5,200.5C 546.999,201.752 545.332,202.752 543.5,203.5C 542.167,201.833 542.167,200.167 543.5,198.5C 545.574,200.828 546.574,200.161 546.5,196.5C 545.448,196.649 544.448,196.483 543.5,196C 545.708,195.809 547.708,195.309 549.5,194.5 Z"/></g>
<g><path style="opacity:1" fill="#099c9c" d="M 609.5,195.5 C 611.5,195.5 613.5,195.5 615.5,195.5C 615.662,197.527 615.495,199.527 615,201.5C 610.483,202.479 608.65,200.479 609.5,195.5 Z"/></g>
<g><path style="opacity:1" fill="#0aa9a9" d="M 684.5,194.5 C 687.85,194.335 691.183,194.502 694.5,195C 695.777,197.466 695.777,199.966 694.5,202.5C 693.534,200.604 693.201,198.604 693.5,196.5C 692.5,196.5 691.5,196.5 690.5,196.5C 690.5,198.5 690.5,200.5 690.5,202.5C 688.167,202.5 685.833,202.5 683.5,202.5C 683.279,199.721 683.612,197.054 684.5,194.5 Z"/></g>
<g><path style="opacity:1" fill="#0ec2c2" d="M 965.5,168.5 C 964.687,180.425 964.187,192.425 964,204.5C 963.205,208.312 962.371,211.979 961.5,215.5C 961.5,212.833 961.5,210.167 961.5,207.5C 962.479,204.375 962.813,201.042 962.5,197.5C 962.843,187.624 963.843,177.957 965.5,168.5 Z"/></g>
<g><path style="opacity:1" fill="#09a2a2" d="M 306.5,195.5 C 308.086,196.413 309.586,196.413 311,195.5C 311.808,197.579 311.641,199.579 310.5,201.5C 309.914,201.291 309.414,200.957 309,200.5C 307.934,202.099 306.434,203.099 304.5,203.5C 304.167,203 303.833,202.5 303.5,202C 305.454,200.259 306.454,198.092 306.5,195.5 Z"/></g>
<g><path style="opacity:1" fill="#099b9b" d="M 564.5,211.5 C 566.5,211.5 568.5,211.5 570.5,211.5C 570.662,213.527 570.495,215.527 570,217.5C 568.612,218.554 567.112,218.72 565.5,218C 566.448,217.517 567.448,217.351 568.5,217.5C 568.657,216.127 568.49,214.793 568,213.5C 567.29,214.973 566.124,215.64 564.5,215.5C 564.5,214.167 564.5,212.833 564.5,211.5 Z"/></g>
<g><path style="opacity:1" fill="#099f9f" d="M 696.5,210.5 C 698.435,211.15 700.435,211.483 702.5,211.5C 702.327,214.179 701.327,216.513 699.5,218.5C 698.319,216.865 698.319,215.198 699.5,213.5C 698.007,212.859 697.007,211.859 696.5,210.5 Z"/></g>
<g><path style="opacity:1" fill="#078787" d="M 494.5,211.5 C 495.376,211.369 496.043,211.702 496.5,212.5C 495.167,214.167 495.167,215.833 496.5,217.5C 496.167,217.833 495.833,218.167 495.5,218.5C 494.667,217.5 493.833,216.5 493,215.5C 492.751,216.624 492.251,217.624 491.5,218.5C 490.516,216.402 490.849,214.402 492.5,212.5C 493.944,213.981 494.611,213.648 494.5,211.5 Z"/></g>
<g><path style="opacity:1" fill="#099f9f" d="M 503.5,211.5 C 505.722,211.559 506.722,212.725 506.5,215C 505.944,218.439 504.111,219.272 501,217.5C 500.602,211.656 501.435,211.323 503.5,216.5C 504.434,214.905 504.434,213.239 503.5,211.5 Z"/></g>
<g><path style="opacity:1" fill="#078181" d="M 535.5,211.5 C 536.725,212.152 537.392,213.319 537.5,215C 537.167,216.167 536.833,217.333 536.5,218.5C 535.526,216.257 535.192,213.924 535.5,211.5 Z"/></g>
<g><path style="opacity:1" fill="#09a6a6" d="M 647.5,216.5 C 648.097,216.265 648.43,215.765 648.5,215C 647.944,213.989 647.278,213.156 646.5,212.5C 651.772,211.6 657.105,211.267 662.5,211.5C 662.896,214.044 662.229,216.211 660.5,218C 657.518,218.498 654.518,218.665 651.5,218.5C 651.785,216.712 651.452,215.045 650.5,213.5C 649.355,214.776 649.355,216.109 650.5,217.5C 649.14,218.665 648.14,218.332 647.5,216.5 Z"/></g>
<g><path style="opacity:1" fill="#077b7b" d="M 664.5,211.5 C 665.693,211.97 666.36,212.97 666.5,214.5C 666.658,216.319 665.991,217.652 664.5,218.5C 664.162,216.345 664.162,214.011 664.5,211.5 Z"/></g>
<g><path style="opacity:1" fill="#09a0a0" d="M 393.5,211.5 C 399.167,211.5 404.833,211.5 410.5,211.5C 410.808,213.924 410.474,216.257 409.5,218.5C 408.204,211.959 407.538,211.959 407.5,218.5C 406.5,218.5 405.5,218.5 404.5,218.5C 403.833,211.833 403.167,211.833 402.5,218.5C 400.508,218.328 398.842,218.995 397.5,220.5C 396.686,218.234 396.186,215.9 396,213.5C 395.692,214.308 395.192,214.975 394.5,215.5C 393.571,214.311 393.238,212.978 393.5,211.5 Z"/></g>
<g><path style="opacity:1" fill="#099b9b" d="M 454.5,211.5 C 457.5,211.5 460.5,211.5 463.5,211.5C 463.5,213.833 463.5,216.167 463.5,218.5C 461.5,218.5 459.5,218.5 457.5,218.5C 457.291,212.739 456.458,212.406 455,217.5C 453.887,216.289 452.72,216.289 451.5,217.5C 450.948,215.997 450.948,214.331 451.5,212.5C 452.791,212.737 453.791,212.404 454.5,211.5 Z"/></g>
<g><path style="opacity:1" fill="#099b9b" d="M 546.5,211.5 C 552.5,210.167 554.833,212.5 553.5,218.5C 551.167,218.5 548.833,218.5 546.5,218.5C 546.5,216.167 546.5,213.833 546.5,211.5 Z"/></g>
<g><path style="opacity:1" fill="#0aa9a9" d="M 600.5,210.5 C 602.117,211.038 603.784,211.371 605.5,211.5C 604.949,218.918 603.615,219.585 601.5,213.5C 600.548,215.045 600.215,216.712 600.5,218.5C 598.5,218.5 596.5,218.5 594.5,218.5C 594.5,216.833 594.5,215.167 594.5,213.5C 593.5,213.5 592.5,213.5 591.5,213.5C 591.5,215.167 591.5,216.833 591.5,218.5C 589.167,218.5 586.833,218.5 584.5,218.5C 584.5,216.167 584.5,213.833 584.5,211.5C 590.026,211.821 595.36,211.488 600.5,210.5 Z"/></g>
<g><path style="opacity:1" fill="#0aaaaa" d="M 612.5,210.5 C 616.869,210.467 621.202,210.8 625.5,211.5C 626.167,218.167 626.833,218.167 627.5,211.5C 630.448,211.223 633.281,211.556 636,212.5C 636.808,214.579 636.641,216.579 635.5,218.5C 634.833,216.833 634.167,215.167 633.5,213.5C 632.571,214.689 632.238,216.022 632.5,217.5C 628.534,218.162 624.534,218.495 620.5,218.5C 620.5,216.833 620.5,215.167 620.5,213.5C 619.5,213.5 618.5,213.5 617.5,213.5C 617.5,215.833 617.5,218.167 617.5,220.5C 616.5,220.5 615.5,220.5 614.5,220.5C 614.542,216.991 613.876,213.658 612.5,210.5 Z"/></g>
<g><path style="opacity:1" fill="#088b8b" d="M 412.5,211.5 C 418.235,210.821 419.902,213.155 417.5,218.5C 416.548,216.955 416.215,215.288 416.5,213.5C 415.5,213.5 414.5,213.5 413.5,213.5C 413.657,214.873 413.49,216.207 413,217.5C 412.505,215.527 412.338,213.527 412.5,211.5 Z"/></g>
<g><path style="opacity:1" fill="#089191" d="M 483.5,211.5 C 488.906,210.735 490.906,213.069 489.5,218.5C 488.001,217.322 487.001,215.655 486.5,213.5C 484.325,218.363 483.325,217.697 483.5,211.5 Z"/></g>
<g><path style="opacity:1" fill="#09a1a1" d="M 528.5,210.5 C 535.398,210.78 536.398,213.447 531.5,218.5C 530.769,216.599 530.769,214.599 531.5,212.5C 530.5,212.5 529.5,212.5 528.5,212.5C 528.5,214.5 528.5,216.5 528.5,218.5C 526.5,218.5 524.5,218.5 522.5,218.5C 522.771,216.179 522.104,214.179 520.5,212.5C 523.306,211.832 525.972,211.166 528.5,210.5 Z"/></g>
<g><path style="opacity:1" fill="#09a4a4" d="M 554.5,211.5 C 557.187,211.336 559.854,211.503 562.5,212C 563.833,214 563.833,216 562.5,218C 559.843,218.175 557.176,218.008 554.5,217.5C 554.5,215.5 554.5,213.5 554.5,211.5 Z"/></g>
<g><path style="opacity:1" fill="#0aa8a8" d="M 571.5,211.5 C 575.091,211.67 578.424,212.003 581.5,212.5C 580.959,214.535 580.292,216.535 579.5,218.5C 578.808,217.975 578.308,217.308 578,216.5C 577.29,217.973 576.124,218.64 574.5,218.5C 573.523,216.179 572.523,213.846 571.5,211.5 Z"/></g>
<g><path style="opacity:1" fill="#09a2a2" d="M 468.5,211.5 C 469.693,211.97 470.36,212.97 470.5,214.5C 470.333,215.5 470.167,216.5 470,217.5C 468.307,218.184 466.807,219.184 465.5,220.5C 464.167,218.5 464.167,216.5 465.5,214.5C 466.167,215.167 466.833,215.833 467.5,216.5C 468.452,214.955 468.785,213.288 468.5,211.5 Z"/></g>
<g><path style="opacity:1" fill="#078282" d="M 646.5,212.5 C 647.278,213.156 647.944,213.989 648.5,215C 648.43,215.765 648.097,216.265 647.5,216.5C 647.565,216.062 647.399,215.728 647,215.5C 645.755,219.498 644.922,219.331 644.5,215C 644.833,213.833 645.167,212.667 645.5,211.5C 646.107,211.624 646.44,211.957 646.5,212.5 Z"/></g>
<g><path style="opacity:1" fill="#09a4a4" d="M 422.5,212.5 C 425.64,211.359 428.973,211.192 432.5,212C 433.38,213.356 433.714,214.856 433.5,216.5C 434.833,216.5 436.167,216.5 437.5,216.5C 437.238,215.022 437.571,213.689 438.5,212.5C 439.466,214.396 439.799,216.396 439.5,218.5C 434.5,218.5 429.5,218.5 424.5,218.5C 424.946,215.99 424.28,213.99 422.5,212.5 Z"/></g>
<g><path style="opacity:1" fill="#0aa8a8" d="M 443.5,211.5 C 445.5,211.5 447.5,211.5 449.5,211.5C 449.5,213.833 449.5,216.167 449.5,218.5C 448.5,218.5 447.5,218.5 446.5,218.5C 446.5,217.5 446.5,216.5 446.5,215.5C 445.5,215.5 444.5,215.5 443.5,215.5C 443.5,214.167 443.5,212.833 443.5,211.5 Z"/></g>
<g><path style="opacity:1" fill="#0ab6b6" d="M 483.5,211.5 C 483.325,217.697 484.325,218.363 486.5,213.5C 487.001,215.655 488.001,217.322 489.5,218.5C 489.265,219.097 488.765,219.43 488,219.5C 484.282,218.904 480.616,218.238 477,217.5C 476.602,211.656 477.435,211.323 479.5,216.5C 480.645,215.224 480.645,213.891 479.5,212.5C 480.689,211.571 482.022,211.238 483.5,211.5 Z"/></g>
<g><path style="opacity:1" fill="#099d9d" d="M 507.5,211.5 C 510.187,211.336 512.854,211.503 515.5,212C 516.576,213.726 516.743,215.559 516,217.5C 515.275,218.059 514.442,218.392 513.5,218.5C 511.668,217.179 509.668,216.179 507.5,215.5C 507.5,214.167 507.5,212.833 507.5,211.5 Z"/></g>
<g><path style="opacity:1" fill="#0aafaf" d="M 670.5,210.5 C 678.553,210.225 686.553,210.725 694.5,212C 697.318,214.853 697.152,217.353 694,219.5C 691.849,219.235 690.182,218.235 689,216.5C 688.196,217.804 687.029,218.471 685.5,218.5C 682.842,217.568 680.175,217.401 677.5,218C 679.107,216.951 679.773,215.451 679.5,213.5C 677.263,214.449 674.929,215.116 672.5,215.5C 672.785,217.288 672.452,218.955 671.5,220.5C 670.513,217.232 670.18,213.898 670.5,210.5 Z"/></g>
<g><path style="opacity:1" fill="#109293" d="M 845.5,187.5 C 844.504,187.586 843.671,187.252 843,186.5C 842.333,197.5 842.333,208.5 843,219.5C 845.058,220.229 846.891,221.229 848.5,222.5C 846.064,222.683 843.897,222.016 842,220.5C 841.5,208.838 841.333,197.171 841.5,185.5C 843.38,185.229 844.713,185.896 845.5,187.5 Z"/></g>
<g><path style="opacity:1" fill="#10b8b8" d="M 958.5,220.5 C 955.061,222.394 951.728,224.56 948.5,227C 946.655,228.128 944.655,228.628 942.5,228.5C 946.984,224.258 952.318,221.591 958.5,220.5 Z"/></g>
<g><path style="opacity:1" fill="#10adad" d="M 859.5,227.5 C 864.152,227.33 867.819,228.997 870.5,232.5C 866.844,230.679 863.177,229.013 859.5,227.5 Z"/></g>
<g><path style="opacity:1" fill="#105456" d="M 894.5,220.5 C 894.5,228.5 894.5,236.5 894.5,244.5C 893.209,244.737 892.209,244.404 891.5,243.5C 893.153,236.054 894.153,228.388 894.5,220.5 Z"/></g>
<g><path style="opacity:1" fill="#119898" d="M 936.5,231.5 C 935.341,233.25 933.674,234.25 931.5,234.5C 932.486,232.592 934.152,231.592 936.5,231.5 Z"/></g>
<g><path style="opacity:1" fill="#129798" d="M 922.5,237.5 C 920.518,240.137 917.852,241.47 914.5,241.5C 916.612,239.229 919.279,237.896 922.5,237.5 Z"/></g>
<g><path style="opacity:1" fill="#107f7f" d="M 898.5,226.5 C 898.334,231.844 898.501,237.177 899,242.5C 900.356,241.62 901.856,241.286 903.5,241.5C 901.786,242.738 899.786,243.405 897.5,243.5C 897.178,237.642 897.511,231.975 898.5,226.5 Z"/></g>
<g><path style="opacity:1" fill="#11abac" d="M 914.5,241.5 C 912.924,242.283 911.591,243.45 910.5,245C 908.527,245.495 906.527,245.662 904.5,245.5C 906.242,244.043 908.242,242.876 910.5,242C 911.793,241.51 913.127,241.343 914.5,241.5 Z"/></g>
<g><path style="opacity:1" fill="#109f9f" d="M 904.5,245.5 C 901.961,246.931 899.628,248.597 897.5,250.5C 898.09,246.684 900.423,245.017 904.5,245.5 Z"/></g>
<g><path style="opacity:1" fill="#fefefe" d="M 0.5,353.5 C 356.5,353.5 712.5,353.5 1068.5,353.5C 1068.5,436.167 1068.5,518.833 1068.5,601.5C 865.999,601.167 663.666,601.5 461.5,602.5C 307.833,602.5 154.167,602.5 0.5,602.5C 0.5,519.5 0.5,436.5 0.5,353.5 Z"/></g>
<g><path style="opacity:1" fill="#f7f7f7" d="M 12.5,379.5 C 96.1667,379.5 179.833,379.5 263.5,379.5C 263.5,440.5 263.5,501.5 263.5,562.5C 179.833,562.5 96.1667,562.5 12.5,562.5C 12.5,501.5 12.5,440.5 12.5,379.5 Z"/></g>
<g><path style="opacity:1" fill="#f7f7f7" d="M 277.5,379.5 C 361.167,379.5 444.833,379.5 528.5,379.5C 528.5,440.5 528.5,501.5 528.5,562.5C 444.833,562.5 361.167,562.5 277.5,562.5C 277.5,501.5 277.5,440.5 277.5,379.5 Z"/></g>
<g><path style="opacity:1" fill="#f7f7f7" d="M 542.5,379.5 C 626.167,379.5 709.833,379.5 793.5,379.5C 793.5,440.5 793.5,501.5 793.5,562.5C 709.833,562.5 626.167,562.5 542.5,562.5C 542.5,501.5 542.5,440.5 542.5,379.5 Z"/></g>
<g><path style="opacity:1" fill="#f7f7f7" d="M 807.5,379.5 C 891.167,379.5 974.833,379.5 1058.5,379.5C 1058.5,440.5 1058.5,501.5 1058.5,562.5C 974.833,562.5 891.167,562.5 807.5,562.5C 807.5,501.5 807.5,440.5 807.5,379.5 Z"/></g>
<g><path style="opacity:1" fill="#848484" d="M 134.5,420.5 C 147.555,421.04 151.055,427.04 145,438.5C 143.321,441.513 140.987,443.846 138,445.5C 131.202,440.568 128.202,433.902 129,425.5C 130.812,423.7 132.645,422.033 134.5,420.5 Z"/></g>
<g><path style="opacity:1" fill="#e9e9e9" d="M 135.5,422.5 C 143.641,421.953 147.141,425.62 146,433.5C 144.046,437.282 141.546,440.615 138.5,443.5C 132.71,439.256 130.21,433.589 131,426.5C 132.397,424.93 133.897,423.596 135.5,422.5 Z"/></g>
<g><path style="opacity:1" fill="#838485" d="M 663.5,421.5 C 668.197,422.874 668.531,424.874 664.5,427.5C 663.5,426.5 662.5,425.5 661.5,424.5C 662.612,423.735 663.279,422.735 663.5,421.5 Z"/></g>
<g><path style="opacity:1" fill="#a4a5a6" d="M 673.5,420.5 C 674.5,420.5 675.5,420.5 676.5,420.5C 676.351,421.552 676.517,422.552 677,423.5C 678.487,424.155 679.653,425.155 680.5,426.5C 678.496,428.005 676.663,429.672 675,431.5C 673.756,429.424 671.923,428.424 669.5,428.5C 669.5,427.167 669.5,425.833 669.5,424.5C 670.5,424.5 671.5,424.5 672.5,424.5C 672.433,423.041 672.766,421.708 673.5,420.5 Z"/></g>
<g><path style="opacity:1" fill="#7f7f7f" d="M 135.5,426.5 C 141.359,425.074 143.359,427.074 141.5,432.5C 135.129,434.796 133.129,432.796 135.5,426.5 Z"/></g>
<g><path style="opacity:1" fill="#eaeaea" d="M 136.5,428.5 C 137.833,428.5 139.167,428.5 140.5,428.5C 140.5,429.5 140.5,430.5 140.5,431.5C 139.167,431.5 137.833,431.5 136.5,431.5C 136.5,430.5 136.5,429.5 136.5,428.5 Z"/></g>
<g><path style="opacity:1" fill="#8a8a8a" d="M 387.5,420.5 C 397.839,420.334 408.172,420.5 418.5,421C 419.025,421.692 419.692,422.192 420.5,422.5C 421.924,429.584 421.757,436.584 420,443.5C 419.5,444 419,444.5 418.5,445C 408.5,445.667 398.5,445.667 388.5,445C 387.299,444.097 386.465,442.931 386,441.5C 385.333,435.167 385.333,428.833 386,422.5C 386.717,421.956 387.217,421.289 387.5,420.5 Z"/></g>
<g><path style="opacity:1" fill="#eaeaea" d="M 388.5,422.5 C 392.833,422.5 397.167,422.5 401.5,422.5C 401.5,423.5 401.5,424.5 401.5,425.5C 402.833,425.5 404.167,425.5 405.5,425.5C 405.5,424.5 405.5,423.5 405.5,422.5C 410.099,422.2 414.599,422.533 419,423.5C 419.667,429.833 419.667,436.167 419,442.5C 409.244,443.651 399.411,443.818 389.5,443C 389,442.5 388.5,442 388,441.5C 387.21,435.085 387.376,428.752 388.5,422.5 Z"/></g>
<g><path style="opacity:1" fill="#8d8d8d" d="M 402.5,429.5 C 407.214,429.173 411.88,429.507 416.5,430.5C 414.167,430.833 411.833,431.167 409.5,431.5C 406.731,431.471 404.397,430.805 402.5,429.5 Z"/></g>
<g><path style="opacity:1" fill="#6f6f6f" d="M 397.5,434.5 C 395.5,437.167 393.5,437.167 391.5,434.5C 391.338,432.473 391.505,430.473 392,428.5C 393.667,427.167 395.333,427.167 397,428.5C 397.495,430.473 397.662,432.473 397.5,434.5 Z"/></g>
<g><path style="opacity:1" fill="#dadada" d="M 393.5,429.5 C 394.5,429.5 395.5,429.5 396.5,429.5C 396.884,431.665 396.217,433.332 394.5,434.5C 393.548,432.955 393.215,431.288 393.5,429.5 Z"/></g>
<g><path style="opacity:1" fill="#949494" d="M 402.5,433.5 C 407.214,433.173 411.88,433.507 416.5,434.5C 414.167,434.833 411.833,435.167 409.5,435.5C 406.731,435.471 404.397,434.805 402.5,433.5 Z"/></g>
<g><path style="opacity:1" fill="#a1a1a2" d="M 667.5,429.5 C 671.071,429.408 672.238,431.074 671,434.5C 667.5,438 664,441.5 660.5,445C 656.889,446.254 655.389,445.088 656,441.5C 660.037,437.631 663.87,433.631 667.5,429.5 Z"/></g>
<g><path style="opacity:1" fill="#959595" d="M 391.5,434.5 C 393.5,437.167 395.5,437.167 397.5,434.5C 398.445,435.993 399.445,437.493 400.5,439C 400.355,439.772 400.022,440.439 399.5,441C 396.183,441.498 392.85,441.665 389.5,441.5C 389.4,438.892 390.067,436.558 391.5,434.5 Z"/></g>
<g><path style="opacity:1" fill="#939394" d="M 675.5,434.5 C 681.694,436.06 682.027,438.393 676.5,441.5C 674.947,440.561 673.613,439.394 672.5,438C 673.544,436.826 674.544,435.659 675.5,434.5 Z"/></g>
<g><path style="opacity:1" fill="#e6e6e6" d="M 668.5,431.5 C 669.525,431.897 669.692,432.563 669,433.5C 665.667,436.833 662.333,440.167 659,443.5C 658.333,442.833 658.333,442.167 659,441.5C 662.371,438.297 665.538,434.964 668.5,431.5 Z"/></g>
<g><path style="opacity:1" fill="#909192" d="M 927.5,420.5 C 930.85,420.335 934.183,420.502 937.5,421C 938.357,421.689 939.023,422.522 939.5,423.5C 942.926,423.975 946.092,424.975 949,426.5C 949.667,432.167 949.667,437.833 949,443.5C 948.5,444 948,444.5 947.5,445C 938.167,445.667 928.833,445.667 919.5,445C 919,444.5 918.5,444 918,443.5C 917.17,437.472 917.336,431.472 918.5,425.5C 921.084,424.607 923.751,424.274 926.5,424.5C 926.433,423.041 926.766,421.708 927.5,420.5 Z"/></g>
<g><path style="opacity:1" fill="#f0f0f0" d="M 919.5,426.5 C 928.833,426.5 938.167,426.5 947.5,426.5C 947.5,430.5 947.5,434.5 947.5,438.5C 942.549,438.721 937.715,438.055 933,436.5C 928.618,438.01 924.118,438.677 919.5,438.5C 919.5,434.5 919.5,430.5 919.5,426.5 Z"/></g>
<g><path style="opacity:1" fill="#ababab" d="M 402.5,437.5 C 407.167,437.5 411.833,437.5 416.5,437.5C 416.5,438.5 416.5,439.5 416.5,440.5C 411.833,440.5 407.167,440.5 402.5,440.5C 402.5,439.5 402.5,438.5 402.5,437.5 Z"/></g>
<g><path style="opacity:1" fill="#e7e7e7" d="M 920.5,440.5 C 929.495,441.724 938.495,441.724 947.5,440.5C 947.5,441.5 947.5,442.5 947.5,443.5C 938.5,443.5 929.5,443.5 920.5,443.5C 920.5,442.5 920.5,441.5 920.5,440.5 Z"/></g>
<g><path style="opacity:1" fill="#bcf1f1" d="M 145.5,469.5 C 150.733,469.033 156.067,469.033 161.5,469.5C 159.167,469.5 156.833,469.5 154.5,469.5C 154.227,478.517 153.227,478.684 151.5,470C 149.527,469.505 147.527,469.338 145.5,469.5 Z"/></g>
<g><path style="opacity:1" fill="#b5f1f1" d="M 371.5,469.5 C 376.833,468.167 382.167,468.167 387.5,469.5C 386.022,470.448 385.022,471.781 384.5,473.5C 384.869,471.007 384.203,470.34 382.5,471.5C 381.082,469.692 379.082,469.025 376.5,469.5C 377.092,472.127 377.425,474.794 377.5,477.5C 376.833,477.833 376.167,478.167 375.5,478.5C 375.5,475.5 375.5,472.5 375.5,469.5C 374.167,469.5 372.833,469.5 371.5,469.5 Z"/></g>
<g><path style="opacity:1" fill="#c5f2f2" d="M 410.5,469.5 C 415.833,468.167 421.167,468.167 426.5,469.5C 424.167,469.5 421.833,469.5 419.5,469.5C 419.227,478.517 418.227,478.684 416.5,470C 414.527,469.505 412.527,469.338 410.5,469.5 Z"/></g>
<g><path style="opacity:1" fill="#56e6e6" d="M 145.5,469.5 C 147.527,469.338 149.527,469.505 151.5,470C 153.227,478.684 154.227,478.517 154.5,469.5C 156.833,469.5 159.167,469.5 161.5,469.5C 162.117,469.611 162.617,469.944 163,470.5C 163.498,473.482 163.665,476.482 163.5,479.5C 162.167,479.5 160.833,479.5 159.5,479.5C 159.663,477.143 159.497,474.81 159,472.5C 158.873,478.781 155.707,481.115 149.5,479.5C 149.5,477.167 149.5,474.833 149.5,472.5C 147.833,472.5 146.167,472.5 144.5,472.5C 144.5,474.833 144.5,477.167 144.5,479.5C 143.167,479.5 141.833,479.5 140.5,479.5C 140.228,471.114 139.394,470.78 138,478.5C 136.644,479.38 135.144,479.714 133.5,479.5C 134.244,475.881 134.577,472.215 134.5,468.5C 138.007,467.994 141.174,468.66 144,470.5C 144.383,469.944 144.883,469.611 145.5,469.5 Z"/></g>
<g><path style="opacity:1" fill="#68e8e8" d="M 97.5,468.5 C 101.874,469.416 106.208,469.416 110.5,468.5C 110.5,472.167 110.5,475.833 110.5,479.5C 109.178,479.67 108.011,479.337 107,478.5C 106.333,470.5 105.667,470.5 105,478.5C 103.989,479.337 102.822,479.67 101.5,479.5C 101.5,477.167 101.5,474.833 101.5,472.5C 100.167,472.5 98.8333,472.5 97.5,472.5C 97.5,471.167 97.5,469.833 97.5,468.5 Z"/></g>
<g><path style="opacity:1" fill="#4ee5e5" d="M 111.5,469.5 C 113.5,469.5 115.5,469.5 117.5,469.5C 116.793,472.786 116.46,476.119 116.5,479.5C 115.167,479.5 113.833,479.5 112.5,479.5C 112.384,476.14 112.051,472.807 111.5,469.5 Z"/></g>
<g><path style="opacity:1" fill="#4de5e5" d="M 164.5,469.5 C 166.167,469.5 167.833,469.5 169.5,469.5C 169.665,472.518 169.498,475.518 169,478.5C 167.989,479.337 166.822,479.67 165.5,479.5C 165.658,476.098 165.324,472.764 164.5,469.5 Z"/></g>
<g><path style="opacity:1" fill="#4fe5e5" d="M 384.5,473.5 C 385.022,471.781 386.022,470.448 387.5,469.5C 389.806,469.007 392.139,468.674 394.5,468.5C 394.318,470.675 393.651,472.675 392.5,474.5C 392.68,475.554 393.013,476.554 393.5,477.5C 391.602,478.734 389.935,478.401 388.5,476.5C 387.614,477.325 387.281,478.325 387.5,479.5C 386.178,479.67 385.011,479.337 384,478.5C 383.22,476.613 383.387,474.946 384.5,473.5 Z"/></g>
<g><path style="opacity:1" fill="#46e5e5" d="M 441.5,478.5 C 438.918,478.975 436.918,478.308 435.5,476.5C 436.833,476.5 438.167,476.5 439.5,476.5C 439.5,475.167 439.5,473.833 439.5,472.5C 437.654,472.778 436.32,472.111 435.5,470.5C 438.086,469.52 440.753,469.187 443.5,469.5C 443.664,472.187 443.497,474.854 443,477.5C 442.617,478.056 442.117,478.389 441.5,478.5 Z"/></g>
<g><path style="opacity:1" fill="#34e3e3" d="M 636.5,469.5 C 637.833,469.5 639.167,469.5 640.5,469.5C 640.5,472.5 640.5,475.5 640.5,478.5C 639.5,478.5 638.5,478.5 637.5,478.5C 637.492,475.455 637.159,472.455 636.5,469.5 Z"/></g>
<g><path style="opacity:1" fill="#56e6e6" d="M 898.5,469.5 C 900.268,472.162 900.935,475.162 900.5,478.5C 899.5,478.5 898.5,478.5 897.5,478.5C 897.795,476.265 897.461,474.265 896.5,472.5C 895.167,472.5 893.833,472.5 892.5,472.5C 892.5,471.167 892.5,469.833 892.5,468.5C 894.735,468.205 896.735,468.539 898.5,469.5 Z"/></g>
<g><path style="opacity:1" fill="#38e4e4" d="M 901.5,469.5 C 902.833,469.5 904.167,469.5 905.5,469.5C 905.5,472.5 905.5,475.5 905.5,478.5C 904.5,478.5 903.5,478.5 902.5,478.5C 902.492,475.455 902.159,472.455 901.5,469.5 Z"/></g>
<g><path style="opacity:1" fill="#5ce7e7" d="M 929.5,468.5 C 938.339,467.009 941.672,470.675 939.5,479.5C 935.922,478.553 932.422,478.22 929,478.5C 928.885,476.893 929.385,475.393 930.5,474C 929.767,472.234 929.433,470.401 929.5,468.5 Z"/></g>
<g><path style="opacity:1" fill="#42e4e4" d="M 964.5,469.5 C 964.5,472.5 964.5,475.5 964.5,478.5C 963.167,478.5 961.833,478.5 960.5,478.5C 960.5,475.5 960.5,472.5 960.5,469.5C 961.833,469.5 963.167,469.5 964.5,469.5 Z"/></g>
<g><path style="opacity:1" fill="#baf1f1" d="M 675.5,469.5 C 678.362,468.319 681.362,468.319 684.5,469.5C 684.519,471.06 684.852,472.56 685.5,474C 685.387,475.28 684.72,476.113 683.5,476.5C 682.779,474.314 682.113,472.147 681.5,470C 679.527,469.505 677.527,469.338 675.5,469.5 Z"/></g>
<g><path style="opacity:1" fill="#50e5e5" d="M 675.5,469.5 C 677.527,469.338 679.527,469.505 681.5,470C 682.113,472.147 682.779,474.314 683.5,476.5C 684.72,476.113 685.387,475.28 685.5,474C 684.852,472.56 684.519,471.06 684.5,469.5C 687.448,469.223 690.281,469.556 693,470.5C 693.498,473.482 693.665,476.482 693.5,479.5C 691.089,479.863 689.589,478.863 689,476.5C 688.283,477.044 687.783,477.711 687.5,478.5C 684.833,478.5 682.167,478.5 679.5,478.5C 679.795,476.265 679.461,474.265 678.5,472.5C 677.5,472.5 676.5,472.5 675.5,472.5C 675.5,474.833 675.5,477.167 675.5,479.5C 673.833,479.5 672.167,479.5 670.5,479.5C 670.663,477.143 670.497,474.81 670,472.5C 670.361,477.303 668.194,479.637 663.5,479.5C 663.682,477.325 664.349,475.325 665.5,473.5C 664.954,471.865 664.62,470.199 664.5,468.5C 668.215,468.423 671.881,468.756 675.5,469.5 Z"/></g>
<g><path style="opacity:1" fill="#c4f2f2" d="M 695.5,469.5 C 699.833,468.167 704.167,468.167 708.5,469.5C 705.753,469.187 703.086,469.52 700.5,470.5C 701.32,472.111 702.654,472.778 704.5,472.5C 704.5,473.833 704.5,475.167 704.5,476.5C 703.022,476.238 701.689,476.571 700.5,477.5C 702.396,478.466 704.396,478.799 706.5,478.5C 704.393,479.468 702.059,479.802 699.5,479.5C 699.5,476.167 699.5,472.833 699.5,469.5C 698.167,469.5 696.833,469.5 695.5,469.5 Z"/></g>
<g><path style="opacity:1" fill="#c7f3f2" d="M 901.5,469.5 C 907.167,468.167 912.833,468.167 918.5,469.5C 917.5,469.5 916.5,469.5 915.5,469.5C 914.949,472.807 914.616,476.14 914.5,479.5C 912.265,479.795 910.265,479.461 908.5,478.5C 909.5,478.5 910.5,478.5 911.5,478.5C 911.104,475.518 911.771,472.851 913.5,470.5C 911.604,469.534 909.604,469.201 907.5,469.5C 907.5,471.833 907.5,474.167 907.5,476.5C 906.833,477.167 906.167,477.833 905.5,478.5C 905.5,475.5 905.5,472.5 905.5,469.5C 904.167,469.5 902.833,469.5 901.5,469.5 Z"/></g>
<g><path style="opacity:1" fill="#4ae5e5" d="M 908.5,478.5 C 907.662,478.158 907.328,477.492 907.5,476.5C 907.5,474.167 907.5,471.833 907.5,469.5C 909.604,469.201 911.604,469.534 913.5,470.5C 911.771,472.851 911.104,475.518 911.5,478.5C 910.5,478.5 909.5,478.5 908.5,478.5 Z"/></g>
<g><path style="opacity:1" fill="#4ce5e5" d="M 119.5,469.5 C 122.5,469.5 125.5,469.5 128.5,469.5C 126.917,472.767 127.25,475.767 129.5,478.5C 128.277,479.614 126.944,479.781 125.5,479C 123.332,474.301 122.332,474.468 122.5,479.5C 121.5,479.5 120.5,479.5 119.5,479.5C 119.5,476.167 119.5,472.833 119.5,469.5 Z"/></g>
<g><path style="opacity:1" fill="#c1f2f2" d="M 636.5,469.5 C 642.167,468.167 647.833,468.167 653.5,469.5C 652.5,469.5 651.5,469.5 650.5,469.5C 649.949,472.807 649.616,476.14 649.5,479.5C 648.691,477.708 648.191,475.708 648,473.5C 647.505,475.473 647.338,477.473 647.5,479.5C 645.901,479.768 644.568,479.434 643.5,478.5C 642.71,477.391 642.21,476.058 642,474.5C 641.79,476.058 641.29,477.391 640.5,478.5C 640.5,475.5 640.5,472.5 640.5,469.5C 639.167,469.5 637.833,469.5 636.5,469.5 Z"/></g>
<g><path style="opacity:1" fill="#35e3e3" d="M 643.5,478.5 C 643.296,475.482 642.963,472.482 642.5,469.5C 644.288,469.215 645.955,469.548 647.5,470.5C 646.607,473.084 646.274,475.751 646.5,478.5C 645.5,478.5 644.5,478.5 643.5,478.5 Z"/></g>
<g><path style="opacity:1" fill="#48e5e5" d="M 649.5,479.5 C 649.616,476.14 649.949,472.807 650.5,469.5C 651.5,469.5 652.5,469.5 653.5,469.5C 655.435,468.85 657.435,468.517 659.5,468.5C 659.318,470.675 658.651,472.675 657.5,474.5C 657.68,475.554 658.013,476.554 658.5,477.5C 656.602,478.734 654.935,478.401 653.5,476.5C 652.614,477.325 652.281,478.325 652.5,479.5C 651.5,479.5 650.5,479.5 649.5,479.5 Z"/></g>
<g><path style="opacity:1" fill="#6de8e8" d="M 371.5,469.5 C 372.833,469.5 374.167,469.5 375.5,469.5C 375.5,472.5 375.5,475.5 375.5,478.5C 372.713,479.477 369.713,479.81 366.5,479.5C 366.5,477.167 366.5,474.833 366.5,472.5C 364.833,472.5 363.167,472.5 361.5,472.5C 361.5,471.5 361.5,470.5 361.5,469.5C 364.833,469.5 368.167,469.5 371.5,469.5 Z"/></g>
<g><path style="opacity:1" fill="#a7efef" d="M 433.5,469.5 C 434.167,471.833 434.833,474.167 435.5,476.5C 436.918,478.308 438.918,478.975 441.5,478.5C 435.296,479.77 428.963,479.77 422.5,478.5C 424.077,470.677 425.077,470.677 425.5,478.5C 426.5,478.5 427.5,478.5 428.5,478.5C 428.736,475.391 428.403,472.391 427.5,469.5C 429.653,468.427 431.653,468.427 433.5,469.5 Z"/></g>
<g><path style="opacity:1" fill="#2fe3e3" d="M 433.5,469.5 C 433.5,472.5 433.5,475.5 433.5,478.5C 432.5,478.5 431.5,478.5 430.5,478.5C 430.5,475.5 430.5,472.5 430.5,469.5C 431.5,469.5 432.5,469.5 433.5,469.5 Z"/></g>
<g><path style="opacity:1" fill="#35e4e4" d="M 631.5,478.5 C 631.795,476.265 631.461,474.265 630.5,472.5C 630.082,471.778 629.416,471.278 628.5,471C 630.473,470.505 632.473,470.338 634.5,470.5C 634.5,473.167 634.5,475.833 634.5,478.5C 633.5,478.5 632.5,478.5 631.5,478.5 Z"/></g>
<g><path style="opacity:1" fill="#a0eeee" d="M 898.5,469.5 C 899.5,469.5 900.5,469.5 901.5,469.5C 902.159,472.455 902.492,475.455 902.5,478.5C 903.5,478.5 904.5,478.5 905.5,478.5C 902.713,479.477 899.713,479.81 896.5,479.5C 896.5,477.167 896.5,474.833 896.5,472.5C 897.461,474.265 897.795,476.265 897.5,478.5C 898.5,478.5 899.5,478.5 900.5,478.5C 900.935,475.162 900.268,472.162 898.5,469.5 Z"/></g>
<g><path style="opacity:1" fill="#56e6e6" d="M 170.5,469.5 C 173.167,469.5 175.833,469.5 178.5,469.5C 180.499,476.82 177.833,480.153 170.5,479.5C 170.5,478.5 170.5,477.5 170.5,476.5C 171.833,476.5 173.167,476.5 174.5,476.5C 174.5,475.167 174.5,473.833 174.5,472.5C 173.167,472.5 171.833,472.5 170.5,472.5C 170.5,471.5 170.5,470.5 170.5,469.5 Z"/></g>
<g><path style="opacity:1" fill="#4fe5e5" d="M 382.5,471.5 C 381.612,474.054 381.279,476.721 381.5,479.5C 379.62,479.771 378.287,479.104 377.5,477.5C 377.425,474.794 377.092,472.127 376.5,469.5C 379.082,469.025 381.082,469.692 382.5,471.5 Z"/></g>
<g><path style="opacity:1" fill="#4ee5e5" d="M 708.5,469.5 C 708.664,472.187 708.497,474.854 708,477.5C 707.617,478.056 707.117,478.389 706.5,478.5C 704.396,478.799 702.396,478.466 700.5,477.5C 701.689,476.571 703.022,476.238 704.5,476.5C 704.5,475.167 704.5,473.833 704.5,472.5C 702.654,472.778 701.32,472.111 700.5,470.5C 703.086,469.52 705.753,469.187 708.5,469.5 Z"/></g>
<g><path style="opacity:1" fill="#52e5e5" d="M 914.5,479.5 C 914.616,476.14 914.949,472.807 915.5,469.5C 916.5,469.5 917.5,469.5 918.5,469.5C 918.56,470.043 918.893,470.376 919.5,470.5C 920.842,468.995 922.508,468.328 924.5,468.5C 924.335,470.827 923.669,472.993 922.5,475C 925.701,478.386 925.035,479.719 920.5,479C 919.126,475.59 918.459,475.757 918.5,479.5C 917.167,479.5 915.833,479.5 914.5,479.5 Z"/></g>
<g><path style="opacity:1" fill="#65e7e7" d="M 966.5,468.5 C 973.673,466.839 976.173,469.506 974,476.5C 971.804,479.125 968.97,480.125 965.5,479.5C 965.167,476.5 966.5,475.167 969.5,475.5C 969.5,474.5 969.5,473.5 969.5,472.5C 968.5,472.5 967.5,472.5 966.5,472.5C 966.5,471.167 966.5,469.833 966.5,468.5 Z"/></g>
<g><path style="opacity:1" fill="#54e6e6" d="M 410.5,469.5 C 412.527,469.338 414.527,469.505 416.5,470C 418.227,478.684 419.227,478.517 419.5,469.5C 421.833,469.5 424.167,469.5 426.5,469.5C 426.833,469.5 427.167,469.5 427.5,469.5C 428.403,472.391 428.736,475.391 428.5,478.5C 427.5,478.5 426.5,478.5 425.5,478.5C 425.077,470.677 424.077,470.677 422.5,478.5C 420.034,479.634 417.367,479.801 414.5,479C 413.577,476.959 413.244,474.792 413.5,472.5C 412.167,472.5 410.833,472.5 409.5,472.5C 409.5,474.833 409.5,477.167 409.5,479.5C 405.833,478.167 402.167,478.167 398.5,479.5C 398.477,477.4 399.144,475.567 400.5,474C 399.767,472.234 399.433,470.401 399.5,468.5C 403.007,467.994 406.174,468.66 409,470.5C 409.383,469.944 409.883,469.611 410.5,469.5 Z"/></g>
<g><path style="opacity:1" fill="#6fe8e8" d="M 964.5,469.5 C 963.167,469.5 961.833,469.5 960.5,469.5C 960.5,472.5 960.5,475.5 960.5,478.5C 961.833,478.5 963.167,478.5 964.5,478.5C 961.713,479.477 958.713,479.81 955.5,479.5C 955.227,470.483 954.227,470.316 952.5,479C 949.854,479.497 947.187,479.664 944.5,479.5C 944.5,477.167 944.5,474.833 944.5,472.5C 943.167,472.5 941.833,472.5 940.5,472.5C 940.5,471.167 940.5,469.833 940.5,468.5C 948.726,468.271 956.726,468.605 964.5,469.5 Z"/></g>
<g><path style="opacity:1" fill="#9aeeee" d="M 636.5,469.5 C 637.159,472.455 637.492,475.455 637.5,478.5C 638.5,478.5 639.5,478.5 640.5,478.5C 637.5,478.5 634.5,478.5 631.5,478.5C 632.5,478.5 633.5,478.5 634.5,478.5C 634.5,475.833 634.5,473.167 634.5,470.5C 632.473,470.338 630.473,470.505 628.5,471C 629.416,471.278 630.082,471.778 630.5,472.5C 629.5,472.5 628.5,472.5 627.5,472.5C 627.5,471.167 627.5,469.833 627.5,468.5C 630.545,468.508 633.545,468.841 636.5,469.5 Z"/></g>
<g><path style="opacity:1" fill="#a3efef" d="M 678.5,472.5 C 679.461,474.265 679.795,476.265 679.5,478.5C 682.167,478.5 684.833,478.5 687.5,478.5C 684.713,479.477 681.713,479.81 678.5,479.5C 678.5,477.167 678.5,474.833 678.5,472.5 Z"/></g>
<g><path style="opacity:1" fill="#6ce9e8" d="M 695.5,469.5 C 696.833,469.5 698.167,469.5 699.5,469.5C 699.5,472.833 699.5,476.167 699.5,479.5C 698.167,479.5 696.833,479.5 695.5,479.5C 695.5,476.167 695.5,472.833 695.5,469.5 Z"/></g>
<g><path style="opacity:1" fill="#c2c2c2" d="M 120.5,493.5 C 128.84,493.334 137.173,493.5 145.5,494C 146.406,495.699 146.739,497.533 146.5,499.5C 139.617,500.073 132.951,499.407 126.5,497.5C 124.821,499.104 122.821,499.771 120.5,499.5C 120.5,497.5 120.5,495.5 120.5,493.5 Z"/></g>
<g><path style="opacity:1" fill="#c1c1c1" d="M 151.5,493.5 C 156.179,493.334 160.845,493.501 165.5,494C 166.406,495.699 166.739,497.533 166.5,499.5C 164.179,499.771 162.179,499.104 160.5,497.5C 157.18,499.024 153.68,500.024 150,500.5C 149.761,498.041 150.261,495.707 151.5,493.5 Z"/></g>
<g><path style="opacity:1" fill="#c0c0c0" d="M 385.5,493.5 C 393.84,493.334 402.173,493.5 410.5,494C 411.76,495.814 411.76,497.647 410.5,499.5C 410.002,498.397 409.669,497.397 409.5,496.5C 408.158,498.005 406.492,498.672 404.5,498.5C 404.167,494.5 403.833,494.5 403.5,498.5C 399.822,499.586 396.155,499.586 392.5,498.5C 390.995,495.869 390.329,496.203 390.5,499.5C 388.833,499.5 387.167,499.5 385.5,499.5C 385.5,497.5 385.5,495.5 385.5,493.5 Z"/></g>
<g><path style="opacity:1" fill="#c9c9c9" d="M 433.5,493.5 C 439.167,493.5 444.833,493.5 450.5,493.5C 450.881,495.942 450.214,496.609 448.5,495.5C 446.697,496.137 445.364,497.303 444.5,499C 442.527,499.495 440.527,499.662 438.5,499.5C 438.657,498.127 438.49,496.793 438,495.5C 437.798,497.256 437.298,498.922 436.5,500.5C 435.201,498.242 434.201,495.908 433.5,493.5 Z"/></g>
<g><path style="opacity:1" fill="#c2c2c2" d="M 650.5,493.5 C 658.84,493.334 667.173,493.5 675.5,494C 677.155,495.444 677.822,497.278 677.5,499.5C 670.287,500.078 663.287,499.412 656.5,497.5C 654.821,499.104 652.821,499.771 650.5,499.5C 650.5,497.5 650.5,495.5 650.5,493.5 Z"/></g>
<g><path style="opacity:1" fill="#c4c4c4" d="M 915.5,493.5 C 924.192,493.169 932.859,493.502 941.5,494.5C 942.309,496.071 942.643,497.738 942.5,499.5C 935.8,499.83 929.134,499.497 922.5,498.5C 920.995,495.869 920.329,496.203 920.5,499.5C 918.833,499.5 917.167,499.5 915.5,499.5C 915.5,497.5 915.5,495.5 915.5,493.5 Z"/></g>
<g><path style="opacity:1" fill="#bebebe" d="M 192.5,492.5 C 197.599,494.421 202.599,494.421 207.5,492.5C 212.211,493.924 212.711,496.257 209,499.5C 208.781,498.062 208.281,496.729 207.5,495.5C 205.611,500.291 202.611,501.291 198.5,498.5C 199.872,496.38 199.205,495.38 196.5,495.5C 196.058,499.847 195.225,500.18 194,496.5C 193.517,497.448 193.351,498.448 193.5,499.5C 191.396,499.799 189.396,499.466 187.5,498.5C 188.833,497.167 188.833,495.833 187.5,494.5C 189.291,493.83 190.958,493.163 192.5,492.5 Z"/></g>
<g><path style="opacity:1" fill="#bcbcbc" d="M 330.5,493.5 C 337.976,494.079 345.309,494.079 352.5,493.5C 353.265,498.906 350.931,500.906 345.5,499.5C 345.719,498.325 345.386,497.325 344.5,496.5C 341.402,500.437 338.569,500.104 336,495.5C 335.51,496.793 335.343,498.127 335.5,499.5C 333.833,499.5 332.167,499.5 330.5,499.5C 330.5,497.5 330.5,495.5 330.5,493.5 Z"/></g>
<g><path style="opacity:1" fill="#bbbbbb" d="M 457.5,492.5 C 460.516,493.059 463.516,493.725 466.5,494.5C 469.758,493.583 473.091,493.249 476.5,493.5C 476.617,495.484 475.95,497.15 474.5,498.5C 473.494,498.062 473.494,497.396 474.5,496.5C 473.675,495.614 472.675,495.281 471.5,495.5C 470.492,500.834 467.825,501.834 463.5,498.5C 464.59,497.391 464.59,496.391 463.5,495.5C 462.281,496.263 461.281,497.263 460.5,498.5C 459.115,494.622 457.949,494.622 457,498.5C 456.692,497.692 456.192,497.025 455.5,496.5C 454.833,497.5 454.167,498.5 453.5,499.5C 452.534,497.604 452.201,495.604 452.5,493.5C 454.415,493.784 456.081,493.451 457.5,492.5 Z"/></g>
<g><path style="opacity:1" fill="#bebebe" d="M 596.5,493.5 C 603.5,493.5 610.5,493.5 617.5,493.5C 618.265,498.906 615.931,500.906 610.5,499.5C 610.762,498.022 610.429,496.689 609.5,495.5C 608.171,499.833 605.837,500.5 602.5,497.5C 600.477,499.173 598.144,499.84 595.5,499.5C 595.325,497.379 595.659,495.379 596.5,493.5 Z"/></g>
<g><path style="opacity:1" fill="#b9b9b9" d="M 699.5,494.5 C 704.875,494.172 710.208,494.505 715.5,495.5C 712.628,496.306 710.128,497.64 708,499.5C 705.813,498.981 704.313,497.648 703.5,495.5C 701.766,501.87 700.433,501.537 699.5,494.5 Z"/></g>
<g><path style="opacity:1" fill="#bababa" d="M 946.5,493.5 C 951.179,493.334 955.845,493.501 960.5,494C 962.155,495.444 962.822,497.278 962.5,499.5C 959.843,499.838 957.51,499.171 955.5,497.5C 952.18,499.024 948.68,500.024 945,500.5C 944.761,498.041 945.261,495.707 946.5,493.5 Z"/></g>
<g><path style="opacity:1" fill="#c3c3c3" d="M 963.5,493.5 C 969.425,493.192 975.259,493.525 981,494.5C 981.167,494.833 981.333,495.167 981.5,495.5C 978.749,496.016 976.416,497.183 974.5,499C 972.527,499.495 970.527,499.662 968.5,499.5C 968.649,498.448 968.483,497.448 968,496.5C 967.667,498.167 967.333,499.833 967,501.5C 965.832,498.814 964.665,496.147 963.5,493.5 Z"/></g>
<g><path style="opacity:1" fill="#c0c0c0" d="M 987.5,492.5 C 993.229,493.921 998.895,494.421 1004.5,494C 1006.84,495.27 1006.84,496.77 1004.5,498.5C 1004.33,497.603 1004,496.603 1003.5,495.5C 1000.88,501.058 997.045,502.058 992,498.5C 990.284,499.552 989.284,498.886 989,496.5C 988.517,497.448 988.351,498.448 988.5,499.5C 986.5,499.5 984.5,499.5 982.5,499.5C 982.5,497.5 982.5,495.5 982.5,493.5C 984.415,493.784 986.081,493.451 987.5,492.5 Z"/></g>
<g><path style="opacity:1" fill="#bfbfbf" d="M 178.5,493.5 C 180.833,493.5 183.167,493.5 185.5,493.5C 185.5,494.833 185.5,496.167 185.5,497.5C 182.327,497.401 179.327,498.068 176.5,499.5C 174.222,499.219 173.055,497.885 173,495.5C 172.116,503.403 170.949,503.403 169.5,495.5C 172.642,494.833 175.642,494.166 178.5,493.5 Z"/></g>
<g><path style="opacity:1" fill="#c3c3c3" d="M 681.5,493.5 C 686.36,493.632 691.027,493.798 695.5,494C 697.155,495.444 697.822,497.278 697.5,499.5C 694.756,499.752 692.256,499.085 690,497.5C 686.3,499.621 682.467,500.287 678.5,499.5C 680.043,497.747 681.043,495.747 681.5,493.5 Z"/></g>
<g><path style="opacity:1" fill="#b8b8b8" d="M 736.5,491.5 C 741.266,492.449 742.266,494.782 739.5,498.5C 738.494,498.062 738.494,497.396 739.5,496.5C 738.675,495.614 737.675,495.281 736.5,495.5C 735.649,500.919 732.982,501.919 728.5,498.5C 729.59,497.391 729.59,496.391 728.5,495.5C 727.281,496.263 726.281,497.263 725.5,498.5C 725.331,497.603 724.998,496.603 724.5,495.5C 723.115,499.378 721.949,499.378 721,495.5C 720.71,497.044 720.044,498.377 719,499.5C 718.505,497.527 718.338,495.527 718.5,493.5C 722.902,493.228 727.235,493.561 731.5,494.5C 733.759,494.216 735.426,493.216 736.5,491.5 Z"/></g>
<g><path style="opacity:1" fill="#bebebe" d="M 861.5,493.5 C 868.5,493.5 875.5,493.5 882.5,493.5C 883.265,498.906 880.931,500.906 875.5,499.5C 875.218,494.421 874.218,494.254 872.5,499C 871.5,499.667 870.5,499.667 869.5,499C 867.307,495.676 865.974,495.843 865.5,499.5C 863.833,499.5 862.167,499.5 860.5,499.5C 860.325,497.379 860.659,495.379 861.5,493.5 Z"/></g>
<g><path style="opacity:1" fill="#c2c2c2" d="M 908.5,492.5 C 910.117,493.038 911.784,493.371 913.5,493.5C 913.392,495.783 912.559,497.783 911,499.5C 910.377,495.068 909.377,494.735 908,498.5C 907.632,497.09 906.799,496.09 905.5,495.5C 904.289,496.274 904.289,497.107 905.5,498C 900.351,500.068 895.351,499.901 890.5,497.5C 889.833,498.167 889.167,498.833 888.5,499.5C 887.752,497.668 886.752,496.001 885.5,494.5C 886.651,493.269 887.817,493.269 889,494.5C 895.599,493.85 902.099,493.184 908.5,492.5 Z"/></g>
<g><path style="opacity:1" fill="#bbbbbb" d="M 65.5,493.5 C 72.682,493.56 79.682,493.727 86.5,494C 87.8333,495.667 87.8333,497.333 86.5,499C 84.5273,499.495 82.5273,499.662 80.5,499.5C 80.762,498.022 80.4287,496.689 79.5,495.5C 78.9322,497.435 77.7655,498.768 76,499.5C 74.3435,498.516 72.6768,497.516 71,496.5C 70.5172,497.448 70.3505,498.448 70.5,499.5C 68.8333,499.5 67.1667,499.5 65.5,499.5C 65.5,497.5 65.5,495.5 65.5,493.5 Z"/></g>
<g><path style="opacity:1" fill="#c6c6c6" d="M 354.5,493.5 C 363.025,493.77 371.692,493.937 380.5,494C 382.192,495.401 382.859,497.234 382.5,499.5C 377.75,498.979 373.083,498.979 368.5,499.5C 366.616,499.284 364.949,498.617 363.5,497.5C 361.149,497.387 358.816,498.053 356.5,499.5C 356.386,497.282 355.72,495.282 354.5,493.5 Z"/></g>
<g><path style="opacity:1" fill="#cccccc" d="M 643.5,492.5 C 646.543,493.744 647.876,496.077 647.5,499.5C 639.722,500.111 632.222,499.444 625,497.5C 624.29,498.973 623.124,499.64 621.5,499.5C 621.672,497.508 621.005,495.842 619.5,494.5C 627.657,493.833 635.657,493.167 643.5,492.5 Z"/></g>
<g><path style="opacity:1" fill="#cbcbcb" d="M 113.5,492.5 C 114.708,493.234 116.041,493.567 117.5,493.5C 117.167,495.5 116.833,497.5 116.5,499.5C 109.986,499.4 103.652,499.4 97.5,499.5C 96.1667,496.833 94.8333,496.833 93.5,499.5C 92.1696,497.907 90.8363,496.24 89.5,494.5C 97.511,494.308 105.511,493.642 113.5,492.5 Z"/></g>
<g><path style="opacity:1" fill="#b9b9b9" d="M 416.5,493.5 C 421.179,493.334 425.845,493.501 430.5,494C 431.76,495.814 431.76,497.647 430.5,499.5C 429.749,498.624 429.249,497.624 429,496.5C 428.667,497.167 428.333,497.833 428,498.5C 426.374,495.934 424.874,496.101 423.5,499C 421.19,499.497 418.857,499.663 416.5,499.5C 416.5,497.5 416.5,495.5 416.5,493.5 Z"/></g>
<g><path style="opacity:1" fill="#bdbdbd" d="M 143.5,505.5 C 149.167,505.5 154.833,505.5 160.5,505.5C 160.5,508.833 158.833,510.5 155.5,510.5C 155.167,506.5 154.833,506.5 154.5,510.5C 151.5,510.5 148.5,510.5 145.5,510.5C 145.169,508.678 144.502,507.011 143.5,505.5 Z"/></g>
<g><path style="opacity:1" fill="#b9b9b9" d="M 914.5,505.5 C 919.159,505.015 920.492,506.848 918.5,511C 917.207,511.49 915.873,511.657 914.5,511.5C 914.5,509.5 914.5,507.5 914.5,505.5 Z"/></g>
<g><path style="opacity:1" fill="#c4c4c4" d="M 106.5,505.5 C 109.833,505.5 113.167,505.5 116.5,505.5C 116.739,507.467 116.406,509.301 115.5,511C 112.518,511.498 109.518,511.665 106.5,511.5C 106.5,509.5 106.5,507.5 106.5,505.5 Z"/></g>
<g><path style="opacity:1" fill="#b9b9b9" d="M 125.5,505.5 C 130.5,505.5 135.5,505.5 140.5,505.5C 140.785,507.288 140.452,508.955 139.5,510.5C 137.5,510.5 135.5,510.5 133.5,510.5C 132.289,509.726 132.289,508.893 133.5,508C 131.866,507.506 130.199,507.34 128.5,507.5C 128.5,508.5 128.5,509.5 128.5,510.5C 127.448,510.649 126.448,510.483 125.5,510C 126.413,508.586 126.413,507.086 125.5,505.5 Z"/></g>
<g><path style="opacity:1" fill="#b2b2b2" d="M 926.5,504.5 C 929.348,505.772 932.348,506.605 935.5,507C 933.52,510.683 932.02,510.85 931,507.5C 929.653,511.375 928.486,511.375 927.5,507.5C 925.571,508.38 923.737,509.38 922,510.5C 921.5,510.167 921,509.833 920.5,509.5C 921.833,508.5 921.833,507.5 920.5,506.5C 922.631,505.831 924.631,505.165 926.5,504.5 Z"/></g>
<g><path style="opacity:1" fill="#bababa" d="M 938.5,505.5 C 944.206,505.171 949.872,505.505 955.5,506.5C 954.147,507.524 953.48,508.857 953.5,510.5C 951.833,510.5 950.167,510.5 948.5,510.5C 948.307,506.551 947.807,506.551 947,510.5C 946,506.5 945,506.5 944,510.5C 943.431,506.639 942.598,506.639 941.5,510.5C 940.305,508.879 939.305,507.213 938.5,505.5 Z"/></g>
<g><path style="opacity:1" fill="#bebebe" d="M 86.5,505.5 C 92.1764,505.334 97.8431,505.501 103.5,506C 104.406,507.699 104.739,509.533 104.5,511.5C 99.342,511.135 94.342,511.135 89.5,511.5C 89.3276,507.029 88.4943,506.696 87,510.5C 86.5065,508.866 86.3398,507.199 86.5,505.5 Z"/></g>
<g><path style="opacity:1" fill="#aaaaaa" d="M 119.5,505.5 C 120.833,505.5 122.167,505.5 123.5,505.5C 123.5,507.5 123.5,509.5 123.5,511.5C 122.167,511.5 120.833,511.5 119.5,511.5C 119.5,509.5 119.5,507.5 119.5,505.5 Z"/></g>
<g><path style="opacity:1" fill="#c2c2c2" d="M 616.5,505.5 C 622.176,505.334 627.843,505.501 633.5,506C 634.406,507.699 634.739,509.533 634.5,511.5C 629.5,511.5 624.5,511.5 619.5,511.5C 619.669,506.959 619.002,506.626 617.5,510.5C 616.548,508.955 616.215,507.288 616.5,505.5 Z"/></g>
<g><path style="opacity:1" fill="#c6c6c6" d="M 661.5,504.5 C 664.846,505.003 668.179,505.67 671.5,506.5C 670.167,507.833 670.167,509.167 671.5,510.5C 668.572,511.484 665.572,511.817 662.5,511.5C 662.33,510.178 662.663,509.011 663.5,508C 661.866,507.506 660.199,507.34 658.5,507.5C 658.67,508.822 658.337,509.989 657.5,511C 654.854,511.497 652.187,511.664 649.5,511.5C 649.5,509.5 649.5,507.5 649.5,505.5C 653.702,505.817 657.702,505.483 661.5,504.5 Z"/></g>
<g><path style="opacity:1" fill="#bcbcbc" d="M 673.5,505.5 C 677.846,505.334 682.179,505.501 686.5,506C 687.747,507.494 687.747,508.994 686.5,510.5C 685.262,506.689 684.596,506.689 684.5,510.5C 681.5,510.5 678.5,510.5 675.5,510.5C 675.169,508.678 674.502,507.011 673.5,505.5 Z"/></g>
<g><path style="opacity:1" fill="#bdbdbd" d="M 901.5,505.5 C 904.833,505.833 908.167,506.167 911.5,506.5C 911.714,508.144 911.38,509.644 910.5,511C 907.518,511.498 904.518,511.665 901.5,511.5C 901.5,509.5 901.5,507.5 901.5,505.5 Z"/></g>
<g><path style="opacity:1" fill="#c3c3c3" d="M 352.5,505.5 C 357.844,505.334 363.177,505.501 368.5,506C 369.406,507.699 369.739,509.533 369.5,511.5C 364.527,510.836 359.527,510.503 354.5,510.5C 354.169,508.678 353.502,507.011 352.5,505.5 Z"/></g>
<g><path style="opacity:1" fill="#b8b8b8" d="M 372.5,505.5 C 375.482,505.963 378.482,506.296 381.5,506.5C 381.714,508.144 381.38,509.644 380.5,511C 377.854,511.497 375.187,511.664 372.5,511.5C 372.5,509.5 372.5,507.5 372.5,505.5 Z"/></g>
<g><path style="opacity:1" fill="#bbbbbb" d="M 396.5,504.5 C 398.993,505.774 401.659,506.44 404.5,506.5C 404.539,508.359 403.706,509.692 402,510.5C 401.517,509.552 401.351,508.552 401.5,507.5C 398.788,507.737 396.288,507.737 394,507.5C 393.703,510.864 391.869,512.197 388.5,511.5C 384.092,511.923 382.425,509.923 383.5,505.5C 388.032,505.818 392.366,505.485 396.5,504.5 Z"/></g>
<g><path style="opacity:1" fill="#c7c7c7" d="M 162.5,505.5 C 171.006,505.674 179.673,505.674 188.5,505.5C 188.357,507.262 188.691,508.929 189.5,510.5C 181.367,511.303 173.367,511.637 165.5,511.5C 165.328,507.029 164.494,506.696 163,510.5C 162.506,508.866 162.34,507.199 162.5,505.5 Z"/></g>
<g><path style="opacity:1" fill="#c8c8c8" d="M 408.5,505.5 C 414.167,505.5 419.833,505.5 425.5,505.5C 424.833,507.5 424.167,509.5 423.5,511.5C 420.833,511.5 418.167,511.5 415.5,511.5C 415.378,507.162 415.045,506.828 414.5,510.5C 413.167,510.5 411.833,510.5 410.5,510.5C 410.169,508.678 409.502,507.011 408.5,505.5 Z"/></g>
<g><path style="opacity:1" fill="#d1d1d1" d="M 428.5,505.5 C 429.502,507.011 430.169,508.678 430.5,510.5C 431.833,510.5 433.167,510.5 434.5,510.5C 434.833,506.5 435.167,506.5 435.5,510.5C 437.911,510.863 439.411,509.863 440,507.5C 440.249,508.624 440.749,509.624 441.5,510.5C 442.666,508.833 442.666,507.166 441.5,505.5C 445.215,505.423 448.881,505.756 452.5,506.5C 452.5,508.167 452.5,509.833 452.5,511.5C 444.167,511.5 435.833,511.5 427.5,511.5C 427.205,509.265 427.539,507.265 428.5,505.5 Z"/></g>
<g><path style="opacity:1" fill="#b4b4b4" d="M 428.5,505.5 C 432.668,505.833 437.001,505.833 441.5,505.5C 442.666,507.166 442.666,508.833 441.5,510.5C 440.749,509.624 440.249,508.624 440,507.5C 439.411,509.863 437.911,510.863 435.5,510.5C 435.167,506.5 434.833,506.5 434.5,510.5C 433.167,510.5 431.833,510.5 430.5,510.5C 430.169,508.678 429.502,507.011 428.5,505.5 Z"/></g>
<g><path style="opacity:1" fill="#c3c3c3" d="M 636.5,505.5 C 640.167,505.5 643.833,505.5 647.5,505.5C 647.822,507.722 647.155,509.556 645.5,511C 642.518,511.498 639.518,511.665 636.5,511.5C 636.5,509.5 636.5,507.5 636.5,505.5 Z"/></g>
<g><path style="opacity:1" fill="#cbcbcb" d="M 692.5,505.5 C 701.167,505.5 709.833,505.5 718.5,505.5C 718.328,507.492 718.995,509.158 720.5,510.5C 712.193,511.498 703.86,511.831 695.5,511.5C 695.669,506.959 695.002,506.626 693.5,510.5C 692.548,508.955 692.215,507.288 692.5,505.5 Z"/></g>
<g><path style="opacity:1" fill="#c9c9c9" d="M 881.5,505.5 C 887.5,505.5 893.5,505.5 899.5,505.5C 899.5,507.5 899.5,509.5 899.5,511.5C 893.5,511.5 887.5,511.5 881.5,511.5C 881.5,509.5 881.5,507.5 881.5,505.5 Z"/></g>
<g><path style="opacity:1" fill="#c4c4c4" d="M 958.5,505.5 C 966.833,505.5 975.167,505.5 983.5,505.5C 983.739,507.467 983.406,509.301 982.5,511C 977.167,511.667 971.833,511.667 966.5,511C 965.809,509.933 965.309,508.766 965,507.5C 964.517,508.448 964.351,509.448 964.5,510.5C 963.167,510.5 961.833,510.5 960.5,510.5C 960.169,508.678 959.502,507.011 958.5,505.5 Z"/></g>
<g><path style="opacity:1" fill="#a5f3f3" d="M 1068.5,601.5 C 1068.5,601.833 1068.5,602.167 1068.5,602.5C 866.5,602.5 664.5,602.5 462.5,602.5C 462.5,617.167 462.5,631.833 462.5,646.5C 462.167,646.5 461.833,646.5 461.5,646.5C 461.5,631.833 461.5,617.167 461.5,602.5C 663.666,601.5 865.999,601.167 1068.5,601.5 Z"/></g>
<g><path style="opacity:1" fill="#effefe" d="M -0.5,353.5 C -0.166667,353.5 0.166667,353.5 0.5,353.5C 0.5,436.5 0.5,519.5 0.5,602.5C 154.167,602.5 307.833,602.5 461.5,602.5C 461.5,617.167 461.5,631.833 461.5,646.5C 307.5,646.5 153.5,646.5 -0.5,646.5C -0.5,548.833 -0.5,451.167 -0.5,353.5 Z"/></g>
<g><path style="opacity:1" fill="#14e1e1" d="M 1068.5,602.5 C 1068.5,617.167 1068.5,631.833 1068.5,646.5C 1059.5,646.5 1050.5,646.5 1041.5,646.5C 1041.5,645.833 1041.5,645.167 1041.5,644.5C 865.667,643.5 689.667,643.167 513.5,643.5C 513.5,644.5 513.5,645.5 513.5,646.5C 496.5,646.5 479.5,646.5 462.5,646.5C 462.5,631.833 462.5,617.167 462.5,602.5C 664.5,602.5 866.5,602.5 1068.5,602.5 Z"/></g>
<g><path style="opacity:1" fill="#a9cbcb" d="M 1041.5,644.5 C 1016.83,644.5 992.167,644.5 967.5,644.5C 847.167,644.5 726.833,644.5 606.5,644.5C 575.482,643.841 544.815,644.508 514.5,646.5C 514.167,646.5 513.833,646.5 513.5,646.5C 513.5,645.5 513.5,644.5 513.5,643.5C 689.667,643.167 865.667,643.5 1041.5,644.5 Z"/></g>
<g><path style="opacity:1" fill="#bcbdbd" d="M 606.5,644.5 C 606.5,645.167 606.5,645.833 606.5,646.5C 575.833,646.5 545.167,646.5 514.5,646.5C 544.815,644.508 575.482,643.841 606.5,644.5 Z"/></g>
<g><path style="opacity:1" fill="#e3e4e4" d="M 606.5,644.5 C 726.833,644.5 847.167,644.5 967.5,644.5C 967.5,645.167 967.5,645.833 967.5,646.5C 847.167,646.5 726.833,646.5 606.5,646.5C 606.5,645.833 606.5,645.167 606.5,644.5 Z"/></g>
<g><path style="opacity:1" fill="#c9caca" d="M 967.5,644.5 C 992.167,644.5 1016.83,644.5 1041.5,644.5C 1041.5,645.167 1041.5,645.833 1041.5,646.5C 1016.83,646.5 992.167,646.5 967.5,646.5C 967.5,645.833 967.5,645.167 967.5,644.5 Z"/></g>
</svg>
